<svg width="45" height="45" viewBox="0 0 45 45" fill="none" xmlns="http://www.w3.org/2000/svg">
<g id="pain_muscle_body_icon_134901 1" clip-path="url(#clip0_1329_4086)">
<path id="Vector" d="M17.9297 31.9922C14.7656 35.8594 12.3047 38.6719 11.9531 45C15.1172 45 34.8047 45 34.8047 45C34.1367 42.6445 31.3242 39.5859 28.4766 35.8594L19.6875 30.5859L17.9297 31.9922Z" fill="#BDE5EC"/>
<path id="Vector_2" d="M34.6641 8.64825C35.9648 12.1639 33.8203 14.7654 33.3984 15.5037C32.9766 16.242 23.7305 22.7107 23.5898 26.6131C23.4492 30.5154 24.293 30.7967 24.293 30.7967C24.293 30.7967 21.832 31.4295 20.1094 33.0818C14.3438 38.6365 9.91406 34.5936 8.08594 31.324C11.25 25.699 5.37891 13.5701 13.0781 5.8709C19.5469 -0.633004 31.6055 0.210746 34.6641 8.64825Z" fill="#892E1D"/>
<path id="Vector_3" d="M27.9492 26.8594C27.9492 26.8594 27.6328 34.4531 28.4766 35.8594C22.8516 37.6172 20.1094 33.0469 20.1094 33.0469C20.1094 33.0469 22.1484 31.2891 19.793 19.5469C27.1055 22.9219 27.9492 26.8594 27.9492 26.8594Z" fill="#FFC298"/>
<path id="Vector_4" d="M27.8793 30.0587C27.8793 28.3009 27.9496 26.8595 27.9496 26.8595C27.9496 26.8595 21.6566 22.4298 21.7972 23.7658C22.0433 26.4376 24.1527 28.8634 27.8793 30.0587Z" fill="#E1927A"/>
<path id="Vector_5" d="M32.9767 10.5816C33.8205 12.8316 33.1525 13.6401 33.715 16.4878C34.1017 18.562 34.6642 20.812 35.508 21.5151C34.6642 22.9214 32.9767 22.9214 32.9767 22.9214C32.9767 22.9214 32.9064 29.5308 27.9494 28.5464C20.9533 27.1401 19.2658 20.1441 19.2658 20.1441C19.2658 20.1441 17.0158 22.1128 16.172 19.8628C15.3283 17.6128 17.297 13.9917 19.547 17.0503C19.8283 13.3941 23.0627 11.8472 25.1369 10.6167C30.7619 7.24171 32.1681 8.36671 32.9767 10.5816Z" fill="#FFC298"/>
<path id="Vector_6" d="M32.9767 10.5816C33.8205 12.8316 33.1525 13.6401 33.715 16.4878C34.1017 18.562 34.6642 20.812 35.508 21.5151C34.6642 22.9214 32.9767 22.9214 32.9767 22.9214C32.9767 22.9214 32.9064 29.5308 27.9494 28.5464C20.9533 27.1401 19.2658 20.1441 19.2658 20.1441C19.2658 20.1441 17.0158 22.1128 16.172 19.8628C15.3283 17.6128 17.297 13.9917 19.547 17.0503C19.8283 13.3941 23.0627 11.8472 25.1369 10.6167C30.7619 7.24171 32.1681 8.36671 32.9767 10.5816Z" fill="#FFC298"/>
<path id="Vector_7" d="M18.422 14.5188C19.0197 15.3274 19.547 17.0501 19.547 17.0501C19.547 17.0501 27.6681 15.9251 28.2306 10.6165C29.3556 11.4602 29.3556 13.429 29.3556 13.429C29.3556 13.429 32.4494 13.1477 33.0119 10.6165C34.9455 1.82739 20.672 5.30786 18.422 7.80396C16.172 10.3001 17.5783 13.3938 18.422 14.5188Z" fill="#892E1D"/>
<g id="Group">
<path id="Vector_8" d="M18.1045 17.3314C18.0693 17.5775 17.999 17.7533 17.999 17.9291C17.9639 18.1048 17.9639 18.2455 17.9287 18.3861C17.9287 18.5267 17.9287 18.6673 17.9287 18.8431C17.9287 18.9486 17.9639 19.0189 17.9639 19.1244C17.9639 19.2298 17.999 19.3353 17.999 19.4759V19.5111C17.999 19.6166 17.8936 19.722 17.7881 19.722C17.7529 19.722 17.7529 19.722 17.7178 19.722C17.5771 19.6869 17.4717 19.6166 17.3662 19.5111C17.2607 19.4056 17.1553 19.3353 17.085 19.1947C16.9443 18.9134 16.874 18.6322 16.874 18.3158C16.874 17.9994 17.0146 17.7181 17.1904 17.472C17.3662 17.2611 17.6123 17.0853 17.8936 17.0502C17.999 17.015 18.1045 17.0853 18.1045 17.1908C18.1045 17.2259 18.1045 17.2259 18.1045 17.2611V17.3314Z" fill="#E1927A"/>
</g>
<path id="Vector_9" d="M33.0469 45C34.9885 45 36.5625 43.426 36.5625 41.4844C36.5625 39.5427 34.9885 37.9688 33.0469 37.9688C31.1052 37.9688 29.5312 39.5427 29.5312 41.4844C29.5312 43.426 31.1052 45 33.0469 45Z" fill="#ECC6C3"/>
<path id="Vector_10" d="M33.0469 43.2422C34.0177 43.2422 34.8047 42.4552 34.8047 41.4844C34.8047 40.5136 34.0177 39.7266 33.0469 39.7266C32.0761 39.7266 31.2891 40.5136 31.2891 41.4844C31.2891 42.4552 32.0761 43.2422 33.0469 43.2422Z" fill="#E44450"/>
<path id="Vector_11" d="M15.3281 41.3086C17.2698 41.3086 18.8438 39.7346 18.8438 37.793C18.8438 35.8513 17.2698 34.2773 15.3281 34.2773C13.3865 34.2773 11.8125 35.8513 11.8125 37.793C11.8125 39.7346 13.3865 41.3086 15.3281 41.3086Z" fill="#ECC6C3"/>
<path id="Vector_12" d="M15.3281 39.5508C16.2989 39.5508 17.0859 38.7638 17.0859 37.793C17.0859 36.8222 16.2989 36.0352 15.3281 36.0352C14.3573 36.0352 13.5703 36.8222 13.5703 37.793C13.5703 38.7638 14.3573 39.5508 15.3281 39.5508Z" fill="#E44450"/>
<g id="Group_2">
<path id="Vector_13" d="M36.5283 39.7617L38.9893 38.1445L38.8135 38.7773L38.0752 38.0039L37.7236 37.6875L38.2158 37.1953L39.9033 35.4375L41.0986 37.1953L38.8838 38.1445L39.0244 37.3359L39.4814 38.2852L39.7275 38.7773L39.3408 38.918L36.5283 39.7617Z" fill="#E44450"/>
</g>
<g id="Group_3">
<path id="Vector_14" d="M37.1953 41.6953L40.1133 41.5195L39.6563 41.9766L39.4102 40.957L39.2695 40.5L39.9375 40.2891L42.2578 39.6211L42.4336 41.7305L40.043 41.4844L40.5703 40.8164L40.5 41.9062L40.4648 42.4336L40.043 42.3633L37.1953 41.6953Z" fill="#E44450"/>
</g>
<g id="Group_4">
<path id="Vector_15" d="M11.0742 39.2695L8.47266 40.6406L8.68359 40.043L9.35156 40.8867L9.63281 41.2383L9.14063 41.6602L7.27734 43.2422L6.25781 41.4141L8.54297 40.6406L8.33203 41.4492L7.94531 40.4648L7.76953 39.9375L8.19141 39.8672L11.0742 39.2695Z" fill="#E44450"/>
</g>
<g id="Group_5">
<path id="Vector_16" d="M10.582 37.3008L7.62891 37.1602L8.12109 36.7734L8.29688 37.8281L8.36719 38.2852L7.69922 38.4258L5.34375 38.8477V36.7383L7.73438 37.2305L7.13672 37.8281L7.3125 36.7734L7.38281 36.2109L7.80469 36.3516L10.582 37.3008Z" fill="#E44450"/>
</g>
</g>
<defs>
<clipPath id="clip0_1329_4086">
<rect width="45" height="45" fill="white"/>
</clipPath>
</defs>
</svg>
