<svg width="32" height="32" viewBox="0 0 32 32" fill="none" xmlns="http://www.w3.org/2000/svg">
<g id="material-symbols:photo-camera-outline">
<path id="Vector" d="M15.9998 23.3333C17.6665 23.3333 19.0834 22.7498 20.2505 21.5827C21.4176 20.4156 22.0007 18.9991 21.9998 17.3333C21.9998 15.6667 21.4163 14.2498 20.2492 13.0827C19.0821 11.9156 17.6656 11.3324 15.9998 11.3333C14.3332 11.3333 12.9163 11.9169 11.7492 13.084C10.5821 14.2511 9.99895 15.6676 9.99984 17.3333C9.99984 19 10.5834 20.4169 11.7505 21.584C12.9176 22.7511 14.3341 23.3342 15.9998 23.3333ZM15.9998 20.6667C15.0665 20.6667 14.2776 20.3444 13.6332 19.7C12.9887 19.0556 12.6665 18.2667 12.6665 17.3333C12.6665 16.4 12.9887 15.6111 13.6332 14.9667C14.2776 14.3222 15.0665 14 15.9998 14C16.9332 14 17.7221 14.3222 18.3665 14.9667C19.011 15.6111 19.3332 16.4 19.3332 17.3333C19.3332 18.2667 19.011 19.0556 18.3665 19.7C17.7221 20.3444 16.9332 20.6667 15.9998 20.6667ZM5.33317 28C4.59984 28 3.97184 27.7387 3.44917 27.216C2.92651 26.6933 2.66562 26.0658 2.66651 25.3333V9.33333C2.66651 8.6 2.92784 7.972 3.45051 7.44933C3.97317 6.92667 4.60073 6.66578 5.33317 6.66667H9.53317L11.9998 4H19.9998L22.4665 6.66667H26.6665C27.3998 6.66667 28.0278 6.928 28.5505 7.45067C29.0732 7.97333 29.3341 8.60089 29.3332 9.33333V25.3333C29.3332 26.0667 29.0718 26.6947 28.5492 27.2173C28.0265 27.74 27.399 28.0009 26.6665 28H5.33317ZM26.6665 25.3333V9.33333H21.2665L18.8332 6.66667H13.1665L10.7332 9.33333H5.33317V25.3333H26.6665Z" fill="#979999"/>
</g>
</svg>
