<svg width="119" height="84" viewBox="0 0 119 84" fill="none" xmlns="http://www.w3.org/2000/svg">
<g id="Group 1000003711">
<g id="freepik--background-complete--inject-7">
<path id="Vector" d="M56.1609 83.1048H1.61033C1.18298 83.1041 0.773397 82.9338 0.471483 82.6313C0.169568 82.3289 -6.55354e-07 81.919 0 81.4917V4.80899C0.00372013 4.38409 0.174931 3.97783 0.476443 3.67843C0.777956 3.37903 1.18542 3.21069 1.61033 3.20996H56.1609C56.5887 3.20996 56.999 3.37992 57.3016 3.68244C57.6041 3.98497 57.774 4.39528 57.774 4.82311V81.4917C57.774 81.9195 57.6041 82.3298 57.3016 82.6323C56.999 82.9349 56.5887 83.1048 56.1609 83.1048ZM1.61033 3.26646C1.20171 3.26721 0.810093 3.43006 0.521424 3.71926C0.232756 4.00845 0.0706277 4.40037 0.0706284 4.80899V81.4917C0.0706277 81.9003 0.232756 82.2922 0.521424 82.5814C0.810093 82.8706 1.20171 83.0334 1.61033 83.0342H56.1609C56.5698 83.0334 56.9617 82.8707 57.2508 82.5816C57.5399 82.2924 57.7027 81.9005 57.7034 81.4917V4.80899C57.7027 4.40011 57.5399 4.0082 57.2508 3.71908C56.9617 3.42997 56.5698 3.26721 56.1609 3.26646H1.61033Z" fill="#EBEBEB"/>
<path id="Vector_2" d="M117.271 83.1048H62.7176C62.29 83.1041 61.8802 82.9339 61.5778 82.6315C61.2754 82.3291 61.1052 81.9193 61.1045 81.4917V4.80899C61.109 4.38384 61.2808 3.97757 61.5828 3.67825C61.8847 3.37893 62.2925 3.21068 62.7176 3.20996H117.271C117.695 3.21143 118.102 3.3801 118.403 3.67942C118.704 3.97874 118.875 4.38458 118.879 4.80899V81.4917C118.879 81.9185 118.709 82.328 118.408 82.6303C118.107 82.9327 117.698 83.1033 117.271 83.1048ZM62.7176 3.26646C62.3088 3.26721 61.9169 3.42997 61.6277 3.71908C61.3386 4.0082 61.1759 4.40011 61.1751 4.80899V81.4917C61.1759 81.9005 61.3386 82.2924 61.6277 82.5816C61.9169 82.8707 62.3088 83.0334 62.7176 83.0342H117.271C117.68 83.0334 118.072 82.8707 118.361 82.5816C118.65 82.2924 118.813 81.9005 118.814 81.4917V4.80899C118.813 4.40011 118.65 4.0082 118.361 3.71908C118.072 3.42997 117.68 3.26721 117.271 3.26646H62.7176Z" fill="#EBEBEB"/>
<path id="Vector_3" d="M88.2348 31.2526C88.1025 31.211 87.9634 31.196 87.8253 31.2083C87.6872 31.2206 87.5529 31.26 87.4301 31.3243C87.3073 31.3886 87.1983 31.4765 87.1095 31.583C87.0207 31.6894 86.9538 31.8124 86.9126 31.9448C86.7802 31.9034 86.6409 31.8885 86.5027 31.901C86.3645 31.9134 86.2301 31.953 86.1072 32.0174C85.9843 32.0818 85.8753 32.1698 85.7864 32.2763C85.6975 32.3829 85.6304 32.5059 85.5891 32.6383C85.5477 32.7708 85.5328 32.9101 85.5453 33.0483C85.5578 33.1865 85.5973 33.3208 85.6617 33.4438C85.7261 33.5667 85.8141 33.6757 85.9206 33.7646C86.0272 33.8535 86.1502 33.9205 86.2826 33.9619L88.2998 34.5919L88.9298 32.5748C89.0128 32.3073 88.9863 32.0177 88.856 31.7698C88.7257 31.5219 88.5022 31.3359 88.2348 31.2526Z" fill="#F5F5F5"/>
</g>
<g id="freepik--Character--inject-7">
<path id="Vector_4" d="M109.698 31.8225C108.511 31.4452 107.271 31.263 106.025 31.2829C104.816 31.2899 103.619 31.5208 102.494 31.9638C102.021 32.1494 101.577 32.4004 101.175 32.7096C101.135 32.7435 101.09 32.7746 101.059 32.8056C101.028 32.8367 100.997 32.8593 100.946 32.913C100.895 32.9667 100.762 33.1023 100.663 33.1955C100.483 33.4002 100.316 33.6163 100.163 33.8425C99.532 34.7707 99.131 35.836 98.9937 36.9501C98.9265 37.4777 98.9332 38.0121 99.0135 38.5378C99.0512 38.785 99.1088 39.0288 99.1858 39.2667C99.2626 39.5051 99.357 39.7374 99.4683 39.9617C99.7781 40.5421 100.128 41.1001 100.516 41.6314C100.949 42.2472 101.449 42.9196 101.929 43.7417C102.488 44.6522 102.886 45.6517 103.107 46.6968C103.22 47.2849 103.261 47.8843 103.231 48.4823C103.198 49.0688 103.094 49.6492 102.923 50.2113C102.594 51.2882 102.046 52.2855 101.313 53.141C100.952 53.5613 100.55 53.9445 100.112 54.2852C99.6903 54.6173 99.2382 54.9096 98.762 55.1581C97.8431 55.6322 96.8555 55.9592 95.8352 56.1271C94.8804 56.2853 93.9104 56.3308 92.9451 56.2627C92.0246 56.1974 91.112 56.048 90.2188 55.8164C89.3798 55.5988 88.5543 55.3318 87.7468 55.0169C86.176 54.4151 84.7522 53.7258 83.3933 53.141C82.1345 52.5632 80.8182 52.12 79.4663 51.8188C78.8536 51.6944 78.2298 51.6319 77.6046 51.6323C76.9703 51.6344 76.3377 51.6949 75.7146 51.8132C74.4009 52.0813 73.1307 52.5301 71.9402 53.1466C69.471 54.3925 67.1883 56.291 64.8265 58.2799C64.3992 58.641 63.8464 58.8186 63.2887 58.7737C62.7311 58.7288 62.2138 58.4652 61.8497 58.0404C61.4857 57.6155 61.3045 57.0639 61.3456 56.506C61.3867 55.948 61.6468 55.429 62.0691 55.0621C64.3999 53.0308 66.8549 50.8526 69.9004 49.2253C71.4488 48.3858 73.1073 47.7676 74.8275 47.389C75.7226 47.1999 76.6334 47.0949 77.5481 47.0754C78.4731 47.0548 79.3978 47.1277 80.3082 47.2929C81.9916 47.6223 83.6348 48.1309 85.2098 48.81C86.7072 49.4231 88.0887 50.0531 89.4221 50.5334C90.0617 50.7688 90.7145 50.9669 91.3771 51.1267C91.987 51.2733 92.6094 51.3622 93.2361 51.3922C94.3377 51.4822 95.4429 51.2682 96.4313 50.7735C96.6389 50.6579 96.8356 50.5236 97.0189 50.3723C97.1897 50.2322 97.3467 50.0761 97.4879 49.9062C97.7588 49.5735 97.9588 49.189 98.0755 48.7761C98.128 48.5922 98.1565 48.4023 98.1603 48.2111C98.1649 48.0345 98.1478 47.8581 98.1094 47.6856C97.9867 47.2185 97.7882 46.7748 97.5218 46.3719C97.2082 45.8634 96.7788 45.2927 96.307 44.6514C95.7624 43.9346 95.2705 43.1792 94.8351 42.3913C94.5886 41.9294 94.3771 41.4497 94.2022 40.9562C94.0312 40.4605 93.899 39.9524 93.8067 39.4362C93.6278 38.4322 93.5888 37.4083 93.6909 36.3936C93.888 34.4157 94.5564 32.514 95.6402 30.8478C95.9128 30.4262 96.2119 30.0223 96.5358 29.6387C96.7025 29.4466 96.872 29.2573 97.05 29.0736C97.1319 28.9861 97.2506 28.8759 97.3551 28.777C97.4596 28.6781 97.5698 28.5877 97.6772 28.4945C98.4841 27.8338 99.3824 27.2933 100.344 26.8898C102.095 26.1569 103.967 25.7565 105.864 25.7089C107.718 25.6499 109.569 25.8913 111.345 26.4237C112.018 26.6723 112.572 27.1678 112.893 27.8096C113.214 28.4514 113.279 29.1914 113.075 29.8793C112.87 30.5673 112.411 31.1515 111.791 31.5135C111.172 31.8754 110.437 31.9879 109.738 31.8281L109.698 31.8225Z" fill="#7A12FF"/>
<path id="Vector_5" d="M109.63 32.0516C108.112 31.537 106.503 31.3446 104.906 31.4866C104.136 31.5566 103.377 31.7198 102.646 31.9725C102.041 32.1789 101.476 32.4865 100.974 32.8822L100.813 33.0206C100.28 33.5095 99.5757 33.7669 98.8536 33.7362C98.1314 33.7055 97.4511 33.3891 96.9622 32.8568C96.4733 32.3244 96.2159 31.6196 96.2466 30.8975C96.2773 30.1754 96.5937 29.495 97.126 29.0061C98.1157 28.0381 99.2832 27.2706 100.564 26.746C101.717 26.2653 102.925 25.9285 104.161 25.7431C106.585 25.387 109.057 25.5449 111.416 26.2064C112.199 26.4207 112.864 26.9372 113.266 27.6424C113.669 28.3476 113.774 29.1837 113.56 29.9666C113.346 30.7496 112.829 31.4154 112.124 31.8176C111.419 32.2197 110.583 32.3252 109.8 32.1109L109.65 32.0657L109.63 32.0516Z" fill="#2B0A60"/>
<path id="Vector_6" d="M56.9524 67.0155L58.0005 68.6484C56.9467 69.1993 55.8449 69.1174 54.7205 69.1174C54.243 66.9081 56.9524 67.0155 56.9524 67.0155Z" fill="#7A12FF"/>
<path id="Vector_7" d="M50.5645 58.2998C51.9007 62.1448 56.856 67.2442 56.856 67.2442C56.856 67.2442 54.7654 67.6623 55.3333 69.106H58.2516L64.5348 67.9222C64.7444 67.8734 64.9276 67.7467 65.0472 67.5678C65.1668 67.3889 65.2139 67.1712 65.1789 66.9588L62.8594 59.1784L50.5645 58.2998Z" fill="#2B0A60"/>
<path id="Vector_8" d="M74.9365 60.5007L75.5016 62.7919C76.609 62.354 77.5441 62.0545 78.0244 61.0262C77.4679 59.5967 74.9365 60.5007 74.9365 60.5007Z" fill="#7A12FF"/>
<path id="Vector_9" d="M69.9764 48.7451C71.954 52.2878 76.1239 60.9271 76.1239 60.9271C76.1239 60.9271 78.2654 61.0175 77.98 62.5233L69.677 64.5744C69.4918 64.6385 69.2907 64.6398 69.1047 64.578C68.9188 64.5162 68.7585 64.3948 68.6486 64.2325L62.7158 59.2094C65.9534 57.2318 69.7222 52.0421 69.9764 48.7451Z" fill="#2B0A60"/>
<path id="Vector_10" opacity="0.1" d="M66.1284 56.1787C65.156 57.3559 64.0134 58.3814 62.7383 59.2214L64.4334 60.6029C66.2612 58.9671 66.7811 57.2155 66.1284 56.1787Z" fill="black"/>
<path id="Vector_11" d="M64.0147 38.4584C66.32 38.8511 75.8944 37.5515 76.6063 37.5176C76.6826 36.9893 76.9256 35.6813 77.4991 35.913C78.0726 36.1446 78.3664 37.1334 78.2506 37.608C79.6094 37.3651 81.3949 40.1507 79.3637 42.4108C76.3888 45.7501 65.5205 46.2614 65.5205 46.2614C65.5205 46.2614 59.6244 39.0121 64.0147 38.4584Z" fill="#2B0A60"/>
<path id="Vector_12" opacity="0.1" d="M64.7328 42.9029C64.2734 42.852 63.8085 42.9031 63.3711 43.0526C64.0018 44.1782 64.7217 45.2514 65.5239 46.262C65.5239 46.262 67.7162 46.1574 70.4 45.745C68.9225 44.6884 66.5805 43.1995 64.7328 42.9029Z" fill="black"/>
<path id="Vector_13" d="M78.251 37.6005C79.624 37.0355 80.5845 36.7529 80.901 37.2247C81.2174 37.6965 80.7936 38.6882 79.4658 38.9452C78.2481 38.1825 78.251 37.6005 78.251 37.6005Z" fill="#2B0A60"/>
<path id="Vector_14" d="M79.1434 38.7753C80.5898 38.7273 81.5589 38.812 81.686 39.3403C81.8131 39.8686 81.0842 40.637 79.7903 40.4139C78.94 39.3064 79.1434 38.7753 79.1434 38.7753Z" fill="#2B0A60"/>
<path id="Vector_15" d="M80.056 40.2529C80.9855 40.6852 81.5561 41.0637 81.3866 41.5186C81.2171 41.9734 80.412 42.3238 79.6915 41.7305C79.6831 40.5948 80.056 40.2529 80.056 40.2529Z" fill="#2B0A60"/>
<path id="Vector_16" d="M46.3158 45.683C45.2536 47.7651 38.4845 54.6584 38.0297 55.2122C37.5607 54.9551 36.3685 54.3646 36.2131 54.9664C36.0577 55.5681 36.6708 56.3931 37.1115 56.5767C36.1058 57.5203 37.2612 60.6138 40.3039 60.3482C44.7592 59.9584 51.6666 51.5592 51.6666 51.5592C51.6666 51.5592 49.3811 42.4934 46.3158 45.683Z" fill="#2B0A60"/>
<path id="Vector_17" opacity="0.1" d="M49.4462 48.915C49.6823 48.5175 50.0012 48.1754 50.3813 47.9121C50.9075 49.0912 51.3374 50.3109 51.6668 51.5594C51.6668 51.5594 50.274 53.2544 48.3359 55.1558C48.3727 53.342 48.5789 50.5734 49.4462 48.915Z" fill="black"/>
<path id="Vector_18" d="M37.1114 56.5762C35.8316 57.3333 35.0377 57.9407 35.227 58.4747C35.4163 59.0086 36.4644 59.2657 37.4645 58.356C37.5804 56.9237 37.1114 56.5762 37.1114 56.5762Z" fill="#2B0A60"/>
<path id="Vector_19" d="M37.5157 57.998C36.6117 59.1281 36.1032 59.953 36.4591 60.374C36.8151 60.7949 37.8548 60.6565 38.4509 59.4925C38.0808 58.1506 37.5157 57.998 37.5157 57.998Z" fill="#2B0A60"/>
<path id="Vector_20" d="M38.1597 59.6116C37.9478 60.6145 37.911 61.3067 38.38 61.4367C38.849 61.5666 39.6061 61.1372 39.5553 60.2106C38.6456 59.5184 38.1597 59.6116 38.1597 59.6116Z" fill="#2B0A60"/>
<path id="Vector_21" opacity="0.1" d="M62.8651 59.2067V59.1897L59.1077 58.9072C59.0314 60.526 60.9158 61.5516 63.4471 61.1165L62.8651 59.2067Z" fill="black"/>
<path id="Vector_22" d="M63.5601 39.7588L55.8079 43.0783L48.0586 46.3979C48.0586 46.3979 48.8835 56.4158 51.4262 59.8483C53.9688 63.2809 58.8789 62.2243 63.2154 60.3653C67.552 58.5064 71.6909 55.6841 70.9733 51.4746C70.2557 47.2652 63.5601 39.7588 63.5601 39.7588Z" fill="#2B0A60"/>
<path id="Vector_23" opacity="0.2" d="M60.1876 41.6313L55.9668 43.4394L51.7489 45.2474C51.8111 44.4253 50.0877 52.073 53.0259 56.1496C54.9413 58.8053 58.5179 58.0764 61.6623 56.7288C64.8067 55.3812 67.7985 53.2963 67.1968 50.0784C66.2758 45.1429 59.5519 41.1171 60.1876 41.6313Z" fill="white"/>
<path id="Vector_24" opacity="0.2" d="M58.8457 42.8238L56.0206 44.0273L53.2096 45.2337C53.2293 44.6404 52.2547 50.1409 54.3396 53.1695C55.7042 55.1471 58.1083 54.7063 60.2046 53.808C62.3008 52.9096 64.2784 51.4716 63.7897 49.121C63.058 45.519 58.3993 42.4311 58.8457 42.8238Z" fill="white"/>
<path id="Vector_25" opacity="0.2" d="M39.0775 59.2451C39.6118 59.0307 39.8204 58.297 39.5432 57.6062C39.2661 56.9155 38.6083 56.5293 38.074 56.7437C37.5396 56.9581 37.3311 57.6918 37.6082 58.3825C37.8853 59.0733 38.5431 59.4594 39.0775 59.2451Z" fill="white"/>
<path id="Vector_26" opacity="0.2" d="M79.4629 40.1734C79.5166 40.9164 79.0956 41.552 78.5221 41.5859C77.9486 41.6198 77.4373 41.0605 77.3921 40.3203C77.3469 39.5801 77.7593 38.9416 78.3328 38.9077C78.9063 38.8738 79.4092 39.4332 79.4629 40.1734Z" fill="white"/>
<path id="Vector_27" d="M38.8405 21.5728C27.5767 13.6003 10.2699 18.4906 8.91099 21.5022C7.46735 24.7087 23.1412 33.3452 26.9919 41.6906C32.6139 31.2461 38.8405 21.5728 38.8405 21.5728Z" fill="#7A12FF"/>
<path id="Vector_28" opacity="0.5" d="M34.6902 24.8425C25.7741 18.6272 13.2022 21.424 12.3886 23.5429C11.5213 25.803 23.7682 32.6822 27.1895 38.8693C30.6785 31.5663 34.6902 24.8425 34.6902 24.8425Z" fill="#2B0A60"/>
<path id="Vector_29" d="M35.8006 23.333C33.2749 23.5025 31.1363 24.3501 29.252 26.339C30.1011 26.0667 31.0061 26.0186 31.8793 26.1993C32.7525 26.38 33.5641 26.7833 34.2355 27.3701L35.8006 23.333Z" fill="#7A12FF"/>
<path id="Vector_30" d="M52.3193 15.7959C57.7323 -1.28489 77.011 -1.3527 80.8532 1.2323C83.7716 3.2099 71.3438 11.1005 74.6746 22.4915C63.4645 18.6549 52.3193 15.7959 52.3193 15.7959Z" fill="#7A12FF"/>
<path id="Vector_31" opacity="0.5" d="M57.4131 15.4259C61.9333 5.53796 72.4767 1.58277 77.4009 2.46704C82.0568 3.29763 68.1458 14.1546 70.9879 23.7121C64.2697 19.1918 57.4131 15.4259 57.4131 15.4259Z" fill="#2B0A60"/>
<path id="Vector_32" d="M57.1045 13.8996C57.9758 13.4277 58.932 13.1331 59.9178 13.0327C60.9035 12.9324 61.8995 13.0282 62.848 13.3148C62.151 13.471 61.5062 13.805 60.9765 14.2842C60.4468 14.7634 60.0501 15.3716 59.8251 16.0495L57.1045 13.8996Z" fill="#7A12FF"/>
<path id="Vector_33" d="M57.3398 13.0978C57.9168 12.5584 58.5947 12.1384 59.3346 11.862C60.0745 11.5857 60.8617 11.4584 61.651 11.4875C61.1449 11.7489 60.715 12.1369 60.4031 12.6136C60.0913 13.0903 59.908 13.6396 59.8712 14.2081L57.3398 13.0978Z" fill="#7A12FF"/>
<path id="Vector_34" d="M78.0083 23.3644C80.856 30.0092 70.5838 38.0552 56.283 44.1829C41.9822 50.3106 29.0713 52.1978 26.2151 45.5502C23.3589 38.9027 30.2381 22.9181 44.5389 16.7904C58.8398 10.6626 75.1606 16.7169 78.0083 23.3644Z" fill="#2B0A60"/>
<path id="Vector_35" opacity="0.1" d="M72.3635 23.997C75.0022 30.1586 66.9562 37.2215 55.4127 42.1655C43.8692 47.1095 33.2099 48.0615 30.5713 41.8971C27.9326 35.7326 34.3117 24.7852 45.8496 19.8441C57.3874 14.9029 69.722 17.8326 72.3635 23.997Z" fill="black"/>
<path id="Vector_36" d="M49.146 32.9787C48.8973 32.3967 49.6573 31.73 50.745 31.261C51.8327 30.792 52.8441 30.696 53.0927 31.2864C53.3413 31.8769 52.9599 33.4166 51.8694 33.8855C50.7789 34.3545 49.3946 33.5606 49.146 32.9787Z" fill="#7A12FF"/>
<path id="Vector_37" opacity="0.3" d="M51.4546 38.1681C51.288 37.7726 52.0875 37.1991 53.178 36.7329C54.2685 36.2668 55.2347 36.0832 55.4014 36.4759C55.568 36.8686 55.0256 38.0382 53.9379 38.5043C52.8503 38.9705 51.6241 38.5608 51.4546 38.1681Z" fill="black"/>
<path id="Vector_38" opacity="0.4" d="M31.2747 33.3743C32.8314 28.9163 36.3882 25.608 40.0157 24.7803C46.1321 23.3847 47.9261 31.0436 44.971 36.3238C41.6712 42.234 34.3824 41.3327 33.6704 38.6291C32.6449 40.4287 28.475 41.3695 31.2747 33.3743Z" fill="white"/>
<path id="Vector_39" d="M44.9734 28.3538C44.9734 28.3538 44.5581 33.7809 41.6934 35.6991C38.8287 37.6174 34.5967 35.2669 34.5967 35.2669C34.5967 35.2669 35.012 29.8426 37.8767 27.9215C40.7414 26.0005 44.9734 28.3538 44.9734 28.3538Z" fill="white"/>
<path id="Vector_40" d="M34.5971 35.2388C34.5711 33.9097 34.762 32.5852 35.1621 31.3175C35.3587 30.6688 35.6299 30.045 35.9701 29.4586C36.3135 28.8505 36.7644 28.3097 37.3007 27.8624C37.8534 27.4116 38.5065 27.1005 39.2049 26.9555C39.8831 26.8114 40.582 26.7923 41.2672 26.899C42.5938 27.0939 43.859 27.5865 44.9681 28.3398C43.7631 27.8774 42.4975 27.5919 41.2107 27.4923C40.5935 27.451 39.9736 27.5082 39.3744 27.6618C38.7892 27.7971 38.2448 28.0702 37.7866 28.4585C37.3118 28.8447 36.9075 29.3102 36.5916 29.8343L36.4616 30.0293L36.3458 30.2355C36.2724 30.3739 36.1904 30.518 36.1198 30.6508C35.987 30.9333 35.8373 31.2158 35.7271 31.5181C35.2453 32.7239 34.8672 33.9687 34.5971 35.2388Z" fill="#7A12FF"/>
<path id="Vector_41" d="M52.6162 25.0656C52.6162 25.0656 56.8313 28.5094 60.1848 27.7495C63.5382 26.9895 64.7671 22.3139 64.7671 22.3139C64.7671 22.3139 60.5548 18.8701 57.1986 19.63C53.8423 20.39 52.6162 25.0656 52.6162 25.0656Z" fill="white"/>
<path id="Vector_42" d="M64.7673 22.3133C63.661 21.6357 62.4996 21.0525 61.2952 20.5702C61.0127 20.4515 60.6935 20.3611 60.394 20.2594C60.2443 20.2114 60.0889 20.1775 59.9363 20.1351L59.7103 20.0758L59.4787 20.0362C58.8815 19.9046 58.2662 19.8759 57.6593 19.9515C57.0622 20.0178 56.4892 20.2239 55.9868 20.5532C55.4623 20.8801 54.9939 21.2893 54.5997 21.7652C53.7836 22.7632 53.1173 23.8748 52.6221 25.065C52.8405 23.7424 53.3564 22.4866 54.1307 21.3923C54.5265 20.8228 55.0223 20.3298 55.5941 19.9374C56.1831 19.5311 56.8616 19.2733 57.5717 19.1859C58.2647 19.1066 58.9663 19.1535 59.6425 19.3243C60.2962 19.4827 60.9294 19.7159 61.5297 20.0193C62.7262 20.6033 63.8197 21.3781 64.7673 22.3133Z" fill="#7A12FF"/>
<path id="Vector_43" d="M42.2804 34.7189C43.9224 34.3196 44.9297 32.6648 44.5303 31.0229C44.131 29.381 42.4762 28.3737 40.8343 28.773C39.1924 29.1724 38.1851 30.8271 38.5844 32.469C38.9838 34.111 40.6385 35.1183 42.2804 34.7189Z" fill="#7A12FF"/>
<path id="Vector_44" d="M39.1008 31.9271C39.2018 32.1609 39.3698 32.3595 39.5835 32.4978C39.7973 32.6361 40.0473 32.708 40.3019 32.7043C40.5565 32.7007 40.8043 32.6216 41.014 32.4772C41.2237 32.3328 41.386 32.1295 41.4802 31.8929C41.5744 31.6564 41.5964 31.3972 41.5434 31.1481C41.4905 30.8991 41.3649 30.6713 41.1825 30.4936C41.0002 30.3159 40.7692 30.1962 40.5189 30.1496C40.2685 30.1031 40.01 30.1318 39.776 30.2321C39.6202 30.2988 39.4791 30.3957 39.3608 30.5171C39.2425 30.6385 39.1493 30.782 39.0866 30.9395C39.0238 31.0969 38.9928 31.2652 38.9953 31.4347C38.9977 31.6042 39.0335 31.7715 39.1008 31.9271Z" fill="white"/>
<path id="Vector_45" d="M60.1608 26.1292C60.7886 24.5603 60.0257 22.7796 58.4569 22.1518C56.888 21.524 55.1073 22.2868 54.4795 23.8557C53.8517 25.4245 54.6146 27.2052 56.1834 27.833C57.7522 28.4608 59.5329 27.698 60.1608 26.1292Z" fill="#7A12FF"/>
<path id="Vector_46" d="M54.8614 25.1723C54.9624 25.406 55.1304 25.6046 55.3442 25.7429C55.558 25.8812 55.808 25.9531 56.0626 25.9494C56.3172 25.9458 56.565 25.8667 56.7747 25.7223C56.9844 25.5779 57.1466 25.3746 57.2408 25.138C57.3351 24.9015 57.3571 24.6423 57.3041 24.3933C57.2511 24.1442 57.1255 23.9164 56.9432 23.7387C56.7608 23.561 56.5299 23.4413 56.2796 23.3948C56.0292 23.3482 55.7707 23.3769 55.5366 23.4772C55.3806 23.5436 55.2392 23.6403 55.1207 23.7617C55.0022 23.883 54.9089 24.0266 54.8461 24.1841C54.7834 24.3417 54.7524 24.5101 54.755 24.6797C54.7577 24.8493 54.7938 25.0167 54.8614 25.1723Z" fill="white"/>
<path id="Vector_47" d="M42.0078 31.9327C42.0484 32.0257 42.1157 32.1047 42.2012 32.1596C42.2866 32.2145 42.3864 32.2429 42.488 32.2412C42.5895 32.2394 42.6883 32.2076 42.7718 32.1498C42.8553 32.092 42.9198 32.0107 42.9572 31.9163C42.9946 31.8219 43.0031 31.7185 42.9818 31.6192C42.9605 31.5199 42.9103 31.4291 42.8374 31.3583C42.7646 31.2875 42.6724 31.2399 42.5725 31.2214C42.4726 31.203 42.3695 31.2145 42.2762 31.2546C42.151 31.3092 42.0524 31.4112 42.0021 31.5383C41.9518 31.6653 41.9539 31.8071 42.0078 31.9327Z" fill="white"/>
<path id="Vector_48" d="M57.7691 25.1782C57.8082 25.2718 57.8741 25.3517 57.9585 25.4079C58.0429 25.4641 58.142 25.4941 58.2434 25.4942C58.3448 25.4942 58.444 25.4642 58.5284 25.4081C58.6128 25.3519 58.6788 25.272 58.7179 25.1785C58.7571 25.0849 58.7677 24.9819 58.7484 24.8823C58.7291 24.7828 58.6809 24.6911 58.6097 24.6189C58.5384 24.5467 58.4475 24.4972 58.3482 24.4766C58.2489 24.4559 58.1457 24.4651 58.0517 24.503C57.9882 24.5281 57.9305 24.5656 57.8818 24.6134C57.8331 24.6611 57.7945 24.7181 57.7681 24.7811C57.7418 24.844 57.7283 24.9115 57.7285 24.9797C57.7287 25.0479 57.7425 25.1154 57.7691 25.1782Z" fill="white"/>
<path id="Vector_49" d="M56.1278 34.8154C55.9725 34.9143 55.8171 35.016 55.656 35.0979C55.495 35.1798 55.317 35.2589 55.139 35.3239C54.7756 35.451 54.394 35.5188 54.009 35.5245C53.613 35.519 53.2221 35.4345 52.8592 35.2759C52.4858 35.1121 52.1545 34.8658 51.8901 34.5555L52.3506 34.3577C52.3916 34.7639 52.3414 35.1741 52.2037 35.5584C52.0682 35.9302 51.8598 36.2712 51.5907 36.5613C51.322 36.8364 51.0099 37.0655 50.6668 37.2394C50.4974 37.3207 50.3239 37.3934 50.147 37.4569C49.9662 37.5106 49.7854 37.5558 49.6074 37.5982C49.7685 37.5021 49.9295 37.4145 50.0877 37.3156C50.2459 37.2168 50.3928 37.1264 50.5341 37.0133C50.8137 36.8055 51.0654 36.5624 51.2827 36.2901C51.4864 36.0206 51.6413 35.7175 51.7404 35.3945C51.7894 35.2351 51.8234 35.0715 51.8421 34.9058C51.8605 34.7481 51.8605 34.5888 51.8421 34.4312C51.8356 34.3648 51.8548 34.2985 51.8958 34.2459C51.9368 34.1933 51.9965 34.1585 52.0625 34.1487C52.1074 34.1429 52.153 34.1487 52.195 34.1655C52.237 34.1823 52.2741 34.2096 52.3026 34.2447C52.4053 34.366 52.5198 34.4767 52.6444 34.5753C52.7785 34.6731 52.9202 34.76 53.0682 34.8352C53.3709 34.9837 53.6967 35.0792 54.0316 35.1177C54.3795 35.149 54.7301 35.1338 55.0741 35.0725C55.252 35.0499 55.4244 34.9934 55.6024 34.9595C55.7803 34.9256 55.9499 34.8662 56.1278 34.8154Z" fill="#7A12FF"/>
<path id="Vector_50" d="M52.0957 34.6683C52.0455 34.6678 51.9964 34.6529 51.9543 34.6254C51.9122 34.5979 51.879 34.5588 51.8584 34.5129L51.0759 32.6738C51.0495 32.6112 51.0489 32.5407 51.0743 32.4777C51.0997 32.4147 51.149 32.3643 51.2115 32.3376C51.2426 32.3237 51.2761 32.3162 51.3102 32.3155C51.3442 32.3148 51.3781 32.321 51.4097 32.3336C51.4413 32.3463 51.4701 32.3651 51.4943 32.3891C51.5184 32.4131 51.5376 32.4417 51.5505 32.4732L52.3387 34.3095C52.3556 34.3487 52.3624 34.3915 52.3587 34.434C52.3549 34.4765 52.3406 34.5175 52.317 34.5531C52.2935 34.5887 52.2614 34.6178 52.2238 34.638C52.1861 34.6581 52.1441 34.6685 52.1014 34.6683H52.0957Z" fill="#7A12FF"/>
<path id="Vector_51" d="M26.4183 38.5889C24.1272 39.6652 22.4631 41.9536 22.0479 44.6629C24.0706 42.1937 26.4296 42.9198 26.4296 42.9198L26.4183 38.5889Z" fill="#2B0A60"/>
<path id="Vector_52" d="M26.6527 45.2646C26.2528 46.1748 26.0811 47.1688 26.1525 48.1603C26.2239 49.1519 26.5362 50.111 27.0624 50.9545C27.0398 48.5249 28.7744 47.8016 28.7744 47.8016L26.6527 45.2646Z" fill="#2B0A60"/>
<path id="Vector_53" d="M26.5203 41.5352C24.2122 43.2585 22.89 46.1882 23.0284 49.3071C24.7235 46.0893 27.5204 46.3633 27.5204 46.3633L26.5203 41.5352Z" fill="#2B0A60"/>
<path id="Vector_54" d="M72.8301 18.7021C75.1891 17.7868 77.9859 18.171 80.2432 19.7277C77.0593 19.4903 75.9575 21.7053 75.9575 21.7053L72.8301 18.7021Z" fill="#2B0A60"/>
<path id="Vector_55" d="M76.7451 23.3644C78.6464 23.0564 80.7201 23.2966 81.9914 24.534C80.4307 24.5331 78.9199 25.0834 77.7254 26.0878L76.7451 23.3644Z" fill="#2B0A60"/>
<path id="Vector_56" d="M76.1093 23.0879C77.8355 23.9354 79.378 25.348 79.6887 27.0968C78.4214 26.1846 76.8722 25.7503 75.3154 25.8707L76.1093 23.0879Z" fill="#2B0A60"/>
<path id="Vector_57" d="M74.8975 20.8108C77.7367 20.3277 80.7681 21.3928 82.9321 23.6359C79.4346 22.6443 77.7028 24.8564 77.7028 24.8564L74.8975 20.8108Z" fill="#2B0A60"/>
<path id="Vector_58" d="M42.8828 18.0502C42.7755 16.4512 43.5467 15.0753 45.4565 13.6543C45.0554 15.937 46.7081 16.5077 46.7081 16.5077L42.8828 18.0502Z" fill="#2B0A60"/>
<path id="Vector_59" d="M44.9678 17.1607C45.3463 15.3018 47.2505 13.4881 50.0219 12.3213C48.0443 14.4514 49.6377 15.7736 49.6377 15.7736L44.9678 17.1607Z" fill="#2B0A60"/>
<path id="Vector_60" d="M29.2072 50.5449C29.182 50.5439 29.1576 50.5361 29.1365 50.5223C29.1225 50.5129 29.1105 50.5009 29.1012 50.4868C29.0919 50.4727 29.0855 50.457 29.0823 50.4404C29.0792 50.4239 29.0793 50.4068 29.0828 50.3903C29.0863 50.3738 29.0931 50.3582 29.1026 50.3443C36.5921 39.1511 50.2205 34.7354 50.3561 34.6931C50.3891 34.6832 50.4246 34.6865 50.4552 34.7023C50.4858 34.7182 50.509 34.7452 50.52 34.7778C50.5298 34.8104 50.5264 34.8455 50.5105 34.8756C50.4947 34.9058 50.4676 34.9285 50.4352 34.9389C50.2996 34.9812 36.7559 39.3715 29.3145 50.4771C29.3046 50.4972 29.2894 50.5142 29.2704 50.5261C29.2515 50.5381 29.2296 50.5446 29.2072 50.5449Z" fill="#7A12FF"/>
<path id="Vector_61" d="M31.2685 57.5967C31.2545 57.5994 31.2402 57.5994 31.2262 57.5967C31.1936 57.5858 31.1668 57.5624 31.1514 57.5317C31.1361 57.501 31.1335 57.4655 31.1442 57.4329C36.3142 42.3325 49.8466 35.7895 49.9822 35.7274C50.0126 35.7128 50.0475 35.7109 50.0793 35.722C50.111 35.7331 50.1371 35.7564 50.1518 35.7867C50.1594 35.8019 50.164 35.8184 50.1651 35.8354C50.1663 35.8523 50.164 35.8693 50.1585 35.8854C50.1529 35.9015 50.1443 35.9163 50.1329 35.9289C50.1216 35.9415 50.1078 35.9518 50.0924 35.959C49.9568 36.024 36.5318 42.5218 31.39 57.5176C31.3796 57.5412 31.3626 57.5612 31.341 57.5752C31.3195 57.5893 31.2943 57.5968 31.2685 57.5967Z" fill="#7A12FF"/>
<path id="Vector_62" d="M53.5619 33.5881C53.5393 33.5885 53.5171 33.5827 53.4976 33.5712C53.4781 33.5598 53.4623 33.5431 53.4518 33.5231C53.4427 33.5087 53.4367 33.4927 53.4341 33.476C53.4315 33.4592 53.4323 33.4422 53.4366 33.4257C53.4408 33.4093 53.4483 33.394 53.4587 33.3806C53.4691 33.3672 53.4821 33.3561 53.497 33.3479C53.6213 33.2745 66.0716 26.1919 79.3893 28.209C79.406 28.2111 79.4221 28.2165 79.4366 28.2249C79.4511 28.2333 79.4638 28.2446 79.4738 28.2581C79.4838 28.2716 79.491 28.2869 79.495 28.3032C79.4989 28.3196 79.4995 28.3365 79.4967 28.3531C79.4905 28.3865 79.4719 28.4164 79.4447 28.4368C79.4175 28.4572 79.3836 28.4667 79.3498 28.4633C66.1253 26.4574 53.7512 33.4977 53.641 33.5711C53.6171 33.585 53.5894 33.591 53.5619 33.5881Z" fill="#7A12FF"/>
<path id="Vector_63" d="M80.2818 34.5375C80.2688 34.5405 80.2553 34.5405 80.2423 34.5375C64.478 29.4523 54.7002 33.9725 54.6013 34.0234C54.5706 34.038 54.5353 34.0398 54.5033 34.0284C54.4712 34.017 54.445 33.9933 54.4304 33.9626C54.4158 33.9319 54.414 33.8966 54.4254 33.8646C54.4368 33.8325 54.4604 33.8063 54.4911 33.7917C54.5872 33.7437 64.4497 29.1698 80.3214 34.2918C80.3535 34.3033 80.3799 34.3268 80.3951 34.3573C80.4104 34.3878 80.4133 34.423 80.4033 34.4556C80.394 34.4801 80.3773 34.5012 80.3555 34.5158C80.3338 34.5305 80.308 34.5381 80.2818 34.5375Z" fill="#7A12FF"/>
</g>
<g id="freepik--speech-bubble--inject-15">
<g id="freepik--speech-bubble--inject-15_2">
<g id="freepik--speech-bubble--inject-15_3">
<path id="Vector_64" d="M46.9579 51.0557L25.4558 63.4496C25.3377 63.526 25.2395 63.6293 25.1693 63.7512C25.099 63.873 25.0587 64.0098 25.0518 64.1502V76.9085C25.0593 77.0488 25.1001 77.1852 25.1708 77.3066C25.2416 77.4279 25.3402 77.5307 25.4586 77.6063L26.9079 78.4171C27.0338 78.4798 27.1726 78.5125 27.3133 78.5125C27.454 78.5125 27.5927 78.4798 27.7187 78.4171L49.2123 66.0233C49.3297 65.9462 49.4275 65.8427 49.4976 65.721C49.5678 65.5993 49.6084 65.4629 49.6163 65.3226V52.5587C49.6088 52.4188 49.568 52.2827 49.4972 52.1618C49.4264 52.0409 49.3278 51.9387 49.2095 51.8637L47.7743 51.05C47.6474 50.9866 47.5073 50.9541 47.3654 50.9551C47.2235 50.9561 47.0839 50.9905 46.9579 51.0557Z" fill="white"/>
<path id="Vector_65" d="M27.3232 78.1802V65.4219C27.3307 65.2816 27.3711 65.145 27.4413 65.0232C27.5116 64.9015 27.6095 64.798 27.7272 64.7213L49.2209 52.3274C49.4441 52.1974 49.6249 52.302 49.6249 52.559V65.3202C49.617 65.4604 49.5763 65.5969 49.5062 65.7185C49.436 65.8402 49.3383 65.9437 49.2209 66.0208L27.7159 78.4147C27.5041 78.5418 27.3232 78.4373 27.3232 78.1802Z" fill="white"/>
<path id="Vector_66" opacity="0.2" d="M27.7158 78.4149C27.5905 78.4798 27.4514 78.5136 27.3104 78.5136C27.1693 78.5136 27.0302 78.4798 26.9049 78.4149L25.4556 77.6041C25.3372 77.5292 25.2384 77.427 25.1676 77.3061C25.0968 77.1852 25.0561 77.049 25.0488 76.9091V64.1508C25.0549 64.0046 25.0987 63.8625 25.176 63.7383L27.4361 65.0237C27.3627 65.144 27.3218 65.2812 27.3174 65.4221V78.1804C27.3231 78.4149 27.4897 78.5533 27.7158 78.4149Z" fill="black"/>
<path id="Vector_67" opacity="0.4" d="M49.6188 52.4849C49.5877 52.2815 49.421 52.2024 49.2204 52.3267L27.7155 64.7206C27.597 64.7955 27.4997 64.8996 27.433 65.0229L25.1729 63.7374C25.2416 63.6209 25.3388 63.5237 25.4554 63.4549L46.949 51.0582C47.0749 50.9955 47.2137 50.9629 47.3544 50.9629C47.4951 50.9629 47.6339 50.9955 47.7598 51.0582L49.2091 51.8719C49.3172 51.9388 49.4097 52.0282 49.4804 52.134C49.5511 52.2397 49.5983 52.3594 49.6188 52.4849Z" fill="white"/>
<path id="Vector_68" d="M25.06 69.7129L21.8055 73.0239C21.7658 73.0618 21.7353 73.1083 21.7164 73.1598C21.6974 73.2113 21.6906 73.2665 21.6963 73.321C21.702 73.3756 21.7202 73.4281 21.7494 73.4746C21.7786 73.521 21.8181 73.5602 21.8648 73.589C21.9326 73.6314 24.1249 74.8857 24.1249 74.8857L27.3286 71.0266L25.06 69.7129Z" fill="white"/>
<path id="Vector_69" opacity="0.1" d="M25.06 69.7129L21.8055 73.0239C21.7658 73.0618 21.7353 73.1083 21.7164 73.1598C21.6974 73.2113 21.6906 73.2665 21.6963 73.321C21.702 73.3756 21.7202 73.4281 21.7494 73.4746C21.7786 73.521 21.8181 73.5602 21.8648 73.589C21.9326 73.6314 24.1249 74.8857 24.1249 74.8857L27.3286 71.0266L25.06 69.7129Z" fill="black"/>
<path id="Vector_70" d="M27.3229 71.0146L24.0683 74.3257C24.0156 74.3791 23.981 74.4477 23.9692 74.5218C23.9575 74.5959 23.9693 74.6718 24.003 74.7388C24.0367 74.8059 24.0906 74.8607 24.157 74.8955C24.2234 74.9304 24.2991 74.9435 24.3734 74.9331L27.3229 74.5065C27.6393 74.5065 27.6393 71.0146 27.3229 71.0146Z" fill="white"/>
</g>
<path id="Vector_71" d="M29.453 68.8369C29.4689 68.456 29.5219 68.0775 29.6112 67.7069C29.7017 67.3337 29.8334 66.9717 30.0039 66.6277C30.1707 66.2925 30.3785 65.9793 30.6226 65.6954C30.8631 65.4159 31.1497 65.1799 31.4701 64.9976C31.7227 64.8302 32.0152 64.7327 32.3177 64.715C32.5443 64.7103 32.765 64.7876 32.9392 64.9326C33.1255 65.1002 33.2615 65.3164 33.3319 65.5569C33.4314 65.8657 33.4848 66.1875 33.4901 66.5118C33.4901 66.7943 33.5042 67.0769 33.5042 67.3989C33.5042 67.721 33.5042 68.0035 33.4901 68.2775C33.4769 68.6587 33.4239 69.0375 33.3319 69.4076C33.2427 69.783 33.111 70.147 32.9392 70.4925C32.773 70.8295 32.5641 71.1438 32.3177 71.4276C32.0754 71.7028 31.789 71.9358 31.4701 72.1169C31.2169 72.283 30.9248 72.3803 30.6226 72.3994C30.3963 72.4077 30.1752 72.33 30.0039 72.1819C29.8192 72.0106 29.6836 71.7931 29.6112 71.5519C29.5144 71.2425 29.4611 70.9211 29.453 70.597C29.453 70.3314 29.453 70.032 29.453 69.7297C29.453 69.4274 29.4445 69.1251 29.453 68.8369ZM32.2781 68.9188C32.2781 68.7974 32.2781 68.6646 32.2781 68.5149C32.2781 68.3651 32.2781 68.2182 32.2781 68.0657C32.2781 67.9131 32.2781 67.769 32.2781 67.6278C32.2781 67.4865 32.2781 67.365 32.2781 67.2548C32.2728 67.1132 32.25 66.9728 32.2103 66.8367C32.1839 66.7313 32.1314 66.6341 32.0578 66.5542C31.9901 66.4914 31.9014 66.4561 31.8091 66.4553C31.685 66.4598 31.5646 66.4989 31.4617 66.5683C31.3305 66.6419 31.213 66.7375 31.1142 66.8509C31.0145 66.9683 30.9309 67.0984 30.8656 67.2379C30.797 67.3823 30.7449 67.5339 30.7102 67.6899C30.673 67.8524 30.6503 68.0178 30.6424 68.1843C30.6424 68.303 30.6367 68.4329 30.6254 68.5742C30.6254 68.7183 30.6254 68.8567 30.6254 69.0177C30.6254 69.1788 30.6254 69.32 30.6254 69.4641C30.6254 69.6082 30.6254 69.7466 30.6424 69.8511C30.6352 70.1015 30.7139 70.3468 30.8656 70.5461C30.9955 70.6874 31.1933 70.6817 31.4617 70.5292C31.7257 70.3757 31.9329 70.1408 32.0521 69.8596C32.1844 69.5614 32.2619 69.2417 32.2809 68.916L32.2781 68.9188Z" fill="#1E1E1E"/>
<path id="Vector_72" d="M37.5754 65.5458C37.5754 65.6418 37.5754 65.769 37.5754 65.9243C37.5754 66.0797 37.5754 66.2069 37.5754 66.3086C37.5669 66.6379 37.5194 66.965 37.4342 67.2832C37.3504 67.6067 37.232 67.9202 37.081 68.2183C36.9331 68.5081 36.75 68.7786 36.5358 69.0235C36.3326 69.2574 36.092 69.456 35.8239 69.6111C35.6104 69.7482 35.3652 69.828 35.1119 69.8428C34.9157 69.853 34.7226 69.7907 34.5695 69.6676C34.4056 69.5278 34.2826 69.3462 34.2135 69.1422C34.1221 68.8815 34.0744 68.6076 34.0723 68.3314C34.0723 68.2353 34.0723 68.111 34.0723 67.9556C34.0723 67.8002 34.0723 67.6731 34.0723 67.5686C34.0789 67.2413 34.1244 66.916 34.2079 66.5995C34.2911 66.2742 34.4115 65.9594 34.5667 65.6616C34.7152 65.3704 34.8983 65.0982 35.1119 64.8508C35.3141 64.6143 35.5548 64.4137 35.8239 64.2575C36.0371 64.1203 36.2825 64.0414 36.5358 64.0287C36.734 64.023 36.9279 64.0869 37.0839 64.2095C37.2488 64.3466 37.3713 64.5279 37.437 64.7321C37.5269 64.9941 37.5736 65.2689 37.5754 65.5458ZM35.2334 67.6138C35.2269 67.7029 35.2391 67.7925 35.2693 67.8767C35.2995 67.9608 35.3469 68.0378 35.4086 68.1025C35.4723 68.1412 35.5463 68.1592 35.6207 68.1541C35.695 68.1491 35.766 68.1212 35.8239 68.0743C36.0038 67.9677 36.1482 67.8105 36.2391 67.6222C36.348 67.4072 36.4087 67.171 36.4171 66.9301C36.4171 66.8256 36.4313 66.7097 36.4313 66.5854C36.4313 66.4611 36.4313 66.3481 36.4171 66.2549C36.4232 66.1655 36.4106 66.0758 36.3799 65.9916C36.3493 65.9075 36.3013 65.8306 36.2391 65.7661C36.1346 65.6842 35.9962 65.6955 35.8239 65.7944C35.644 65.9009 35.4995 66.0581 35.4086 66.2464C35.3006 66.4617 35.2408 66.6979 35.2334 66.9386C35.2226 67.0531 35.2179 67.1682 35.2193 67.2832C35.2176 67.3936 35.2223 67.504 35.2334 67.6138Z" fill="#1E1E1E"/>
<path id="Vector_73" d="M40.2707 67.0464C40.169 67.1088 40.0571 67.1528 39.9402 67.1764C39.8601 67.194 39.7772 67.194 39.6972 67.1764C39.6324 67.1592 39.5725 67.1273 39.522 67.0832C39.4783 67.0468 39.4394 67.005 39.4062 66.9589V69.0692C39.4056 69.1455 39.3882 69.2207 39.3554 69.2896C39.3296 69.3507 39.2864 69.4028 39.2311 69.4393L38.4202 69.9083C38.4031 69.9223 38.3816 69.93 38.3595 69.93C38.3374 69.93 38.3159 69.9223 38.2988 69.9083C38.2801 69.8861 38.266 69.8605 38.2573 69.8329C38.2486 69.8052 38.2454 69.7761 38.2479 69.7473V63.2495C38.2486 63.1732 38.2659 63.098 38.2988 63.0291C38.3236 62.9683 38.3659 62.9162 38.4202 62.8794L39.2 62.4302C39.2166 62.4151 39.2383 62.4067 39.2607 62.4067C39.2832 62.4067 39.3048 62.4151 39.3215 62.4302C39.3405 62.4516 39.3551 62.4767 39.3643 62.5038C39.3735 62.531 39.3772 62.5598 39.3751 62.5884V62.8172C39.4119 62.7296 39.4542 62.6336 39.4994 62.5347C39.5472 62.4361 39.6029 62.3416 39.6661 62.2522C39.7383 62.15 39.8207 62.0553 39.9119 61.9697C40.0199 61.8673 40.1405 61.779 40.2707 61.7069C40.4356 61.6044 40.6225 61.5425 40.816 61.5261C40.8979 61.5199 40.9803 61.5305 41.058 61.5573C41.1357 61.584 41.2072 61.6262 41.268 61.6815C41.4163 61.8277 41.5243 62.0097 41.5816 62.2098C41.6696 62.5136 41.7134 62.8286 41.7115 63.1449C41.7115 63.2438 41.7115 63.3738 41.7115 63.5433C41.7115 63.7128 41.7115 63.8484 41.7115 63.9501C41.707 64.3162 41.6635 64.6809 41.5816 65.0378C41.5094 65.3448 41.4042 65.6432 41.268 65.9277C41.149 66.1742 40.997 66.4033 40.816 66.6085C40.6576 66.7815 40.4737 66.9291 40.2707 67.0464ZM40.5532 64.4784C40.5679 64.2903 40.5679 64.1014 40.5532 63.9134C40.5535 63.7298 40.5026 63.5498 40.4063 63.3935C40.3197 63.2692 40.1756 63.2692 39.9741 63.3935C39.8799 63.4474 39.7965 63.5182 39.7283 63.6026C39.6606 63.6896 39.6036 63.7844 39.5588 63.8851C39.5133 63.9861 39.4774 64.0911 39.4514 64.1987C39.4265 64.3037 39.4094 64.4104 39.4006 64.5179C39.4006 64.6197 39.3864 64.7383 39.3864 64.8711C39.3864 65.0039 39.3864 65.1169 39.4006 65.2101C39.4077 65.2984 39.4248 65.3856 39.4514 65.47C39.4732 65.5401 39.5098 65.6046 39.5588 65.6593C39.58 65.6839 39.6059 65.7041 39.635 65.7187C39.6641 65.7332 39.6958 65.7419 39.7283 65.7441C39.8156 65.7468 39.9015 65.7221 39.9741 65.6734C40.1722 65.5598 40.325 65.3812 40.4063 65.1677C40.4935 64.9475 40.545 64.7148 40.5589 64.4784H40.5532Z" fill="#1E1E1E"/>
<path id="Vector_74" d="M44.288 63.0797C44.288 63.0062 44.2739 62.9582 44.24 62.9384C44.1875 62.9171 44.1287 62.9171 44.0761 62.9384C43.9728 62.9659 43.8709 62.9989 43.771 63.0373C43.6439 63.0825 43.4885 63.1362 43.2964 63.1899C43.1722 63.2431 43.0356 63.2602 42.9022 63.2392C42.7687 63.2182 42.6439 63.16 42.5421 63.0712C42.3378 62.8036 42.2438 62.468 42.2794 62.1333C42.2807 61.8992 42.3179 61.6667 42.3895 61.4439C42.4647 61.206 42.5671 60.9775 42.6946 60.7631C42.8263 60.5386 42.9858 60.3317 43.1693 60.1472C43.3518 59.9591 43.559 59.7966 43.7852 59.6641C43.9752 59.5492 44.185 59.4706 44.4039 59.4324C44.5681 59.405 44.7365 59.4167 44.8954 59.4663C45.0296 59.5145 45.1439 59.6059 45.2203 59.7262C45.3015 59.8532 45.3473 59.9995 45.3531 60.15C45.3546 60.2256 45.3371 60.3004 45.3023 60.3676C45.2771 60.429 45.2337 60.4812 45.1779 60.5173L44.4123 60.9608C44.3643 60.9891 44.3276 60.9947 44.2993 60.9778C44.2667 60.9576 44.2327 60.9397 44.1976 60.9241C44.1499 60.906 44.0987 60.8993 44.0479 60.9043C43.9544 60.9188 43.865 60.9524 43.7852 61.0032C43.6912 61.0574 43.6079 61.1282 43.5394 61.2123C43.4714 61.2905 43.4351 61.3912 43.4377 61.4948C43.4325 61.547 43.4444 61.5996 43.4716 61.6445C43.4913 61.6728 43.5365 61.6784 43.5987 61.6643C43.6943 61.6421 43.7886 61.6148 43.8812 61.5824L44.3389 61.427C44.7287 61.2998 45.0141 61.3394 45.1864 61.5456C45.3826 61.8034 45.478 62.1238 45.4548 62.4469C45.4531 62.6818 45.4159 62.9151 45.3446 63.139C45.2673 63.3852 45.1591 63.6206 45.0226 63.8396C44.8776 64.0759 44.705 64.294 44.5084 64.4894C44.3025 64.6947 44.0708 64.8723 43.8191 65.0177C43.6115 65.148 43.38 65.2354 43.1382 65.2748C42.9723 65.3035 42.8017 65.2838 42.6466 65.2183C42.5166 65.1592 42.4087 65.0603 42.3387 64.9358C42.2668 64.8077 42.2262 64.6644 42.22 64.5177C42.2172 64.4432 42.2338 64.3692 42.2681 64.303C42.295 64.241 42.3391 64.1881 42.3952 64.1504L43.1919 63.6899C43.2399 63.6617 43.2738 63.6617 43.2964 63.6899C43.3203 63.7183 43.349 63.7422 43.3812 63.7605C43.4258 63.786 43.4768 63.7977 43.5281 63.7944C43.6294 63.7779 43.7258 63.7393 43.8106 63.6814C43.9374 63.6075 44.0502 63.5119 44.1439 63.3989C44.2314 63.3151 44.283 63.2007 44.288 63.0797Z" fill="#1E1E1E"/>
<path id="Vector_75" d="M47.2569 60.5114C47.2565 60.5869 47.2391 60.6612 47.206 60.729C47.1828 60.7907 47.1401 60.8432 47.0845 60.8787L46.2709 61.3477C46.2542 61.3628 46.2326 61.3711 46.2101 61.3711C46.1877 61.3711 46.166 61.3628 46.1494 61.3477C46.1307 61.3261 46.1166 61.301 46.1078 61.2738C46.0991 61.2466 46.0959 61.2179 46.0986 61.1895V56.9066C46.0989 56.8311 46.1163 56.7568 46.1494 56.689C46.1735 56.6278 46.2159 56.5755 46.2709 56.5393L47.0845 56.0703C47.1012 56.0552 47.1228 56.0469 47.1453 56.0469C47.1677 56.0469 47.1894 56.0552 47.206 56.0703C47.2247 56.0919 47.2388 56.117 47.2476 56.1442C47.2563 56.1714 47.2595 56.2001 47.2569 56.2285V60.5114ZM47.2569 62.6444C47.2562 62.7198 47.2389 62.7941 47.206 62.8619C47.1819 62.9232 47.1395 62.9755 47.0845 63.0117L46.2709 63.4807C46.2542 63.4957 46.2326 63.5041 46.2101 63.5041C46.1877 63.5041 46.166 63.4957 46.1494 63.4807C46.1307 63.4591 46.1166 63.4339 46.1078 63.4067C46.0991 63.3796 46.0959 63.3509 46.0986 63.3224V62.3195C46.0992 62.2441 46.1165 62.1698 46.1494 62.102C46.1735 62.0407 46.2159 61.9885 46.2709 61.9523L47.0845 61.4833C47.1012 61.4682 47.1228 61.4598 47.1453 61.4598C47.1677 61.4598 47.1894 61.4682 47.206 61.4833C47.2247 61.5049 47.2388 61.53 47.2476 61.5572C47.2563 61.5844 47.2595 61.6131 47.2569 61.6415V62.6444Z" fill="#1E1E1E"/>
</g>
</g>
</g>
</svg>
