<svg width="261" height="60" viewBox="0 0 261 60" fill="none" xmlns="http://www.w3.org/2000/svg">
<path opacity="0.96" fill-rule="evenodd" clip-rule="evenodd" d="M229.884 0C231.073 11.5614 237.474 17.9237 249.087 19.087C239.357 19.8415 233.149 24.8929 230.462 34.2409C230.232 35.6201 230.078 37.0082 230 38.4054C228.801 26.7186 222.362 20.279 210.681 19.087C219.019 18.6858 224.919 14.7141 228.38 7.17209C229.252 4.85735 229.753 2.46674 229.884 0Z" fill="#2B0A60"/>
<path opacity="0.984" fill-rule="evenodd" clip-rule="evenodd" d="M199.113 25.2179C213.323 25.9379 223.079 32.8786 228.38 46.0401C228.994 48.1864 229.534 50.3459 230 52.5181C231.932 40.4091 238.526 31.9645 249.781 27.1845C253.362 25.8548 257.064 25.1994 260.886 25.2179C261.769 37.1356 257.527 46.7369 248.161 54.0219C236.31 61.6771 224.356 61.8312 212.301 54.4847C202.483 47.2122 198.087 37.4565 199.113 25.2179Z" fill="#2B0A60"/>
<path opacity="0.923" fill-rule="evenodd" clip-rule="evenodd" d="M14.5624 12.4727C20.344 11.7374 25.3566 13.3183 29.6007 17.2155C28.8527 17.9635 28.12 18.6962 27.4028 19.4134C25.7948 17.1903 23.7513 15.4551 21.2718 14.2078C13.9452 12.3757 9.12529 15.0363 6.81194 22.1897C5.7817 26.7164 5.62762 31.2663 6.34922 35.8398C7.74177 44.1825 12.5616 47.6136 20.8091 46.1352C23.6309 45.0872 25.8288 43.2756 27.4028 40.6983C28.0968 41.3924 28.7909 42.0864 29.485 42.7805C28.7851 43.8633 27.8211 44.7494 26.593 45.4411C19.7818 48.8698 13.1495 48.5621 6.69626 44.5157C1.23506 39.7659 -0.88556 33.79 0.333926 26.5855C1.98443 18.7267 6.72726 14.0225 14.5624 12.4727Z" fill="#2B0A60"/>
<path opacity="0.936" fill-rule="evenodd" clip-rule="evenodd" d="M74.2529 12.4727C82.9737 11.799 89.259 15.3464 93.1085 23.1152C96.2131 32.4181 93.7839 39.8585 85.8208 45.4412C79.2308 48.8861 72.83 48.5784 66.6181 44.5158C59.6121 38.5884 57.7226 31.2997 60.9498 22.6525C63.6852 17.0238 68.1194 13.6304 74.2529 12.4727ZM74.4842 13.6295C80.7651 12.7376 85.0453 15.2053 87.3246 21.033C88.9267 26.7952 89.0038 32.58 87.556 38.3848C85.1357 45.1682 80.3929 47.7501 73.3275 46.1353C70.317 45.1289 68.1962 43.1623 66.9651 40.2357C64.7489 33.7067 64.6719 27.1515 66.7338 20.5703C68.2064 16.975 70.7899 14.6614 74.4842 13.6295Z" fill="#2B0A60"/>
<path opacity="0.93" fill-rule="evenodd" clip-rule="evenodd" d="M109.882 12.4724C115.302 11.6436 119.813 13.2631 123.416 17.3309C123.564 17.5874 123.679 17.8572 123.763 18.1406C123.024 18.8773 122.215 19.5329 121.334 20.1072C118.499 13.7351 113.911 11.9999 107.568 14.9016C105.847 16.5038 105.423 18.3933 106.296 20.5699C107.02 21.5261 107.83 22.4129 108.725 23.2305C112.851 25.6401 116.938 28.108 120.987 30.6339C125.495 34.2084 126.15 38.4122 122.953 43.2429C119.249 47.1251 114.737 48.5526 109.419 47.523C105.192 46.4565 101.953 44.0642 99.702 40.351C100.529 39.5134 101.455 38.8957 102.478 38.5001C104.986 45.383 109.767 47.8516 116.822 45.9035C119.561 44.5524 120.679 42.3545 120.177 39.3098C119.566 37.695 118.525 36.4225 117.054 35.4924C114.239 33.7364 111.385 32.041 108.494 30.4026C106.464 29.0669 104.652 27.4861 103.057 25.6597C101.02 22.2146 101.097 18.8215 103.288 15.48C105.185 13.7823 107.383 12.7798 109.882 12.4724Z" fill="#2B0A60"/>
<path opacity="0.976" fill-rule="evenodd" clip-rule="evenodd" d="M35.8473 12.9353C37.5438 12.9353 39.2406 12.9353 40.9372 12.9353C40.9372 23.8091 40.9372 34.6829 40.9372 45.5567C46.5668 45.5567 52.1966 45.5567 57.8263 45.5567C57.8263 45.8644 57.8263 46.1745 57.8263 46.4822C50.4999 46.4822 43.1737 46.4822 35.8473 46.4822C35.8473 35.3006 35.8473 24.1175 35.8473 12.9353Z" fill="#2B0A60"/>
<path opacity="0.97" fill-rule="evenodd" clip-rule="evenodd" d="M131.398 12.9353C138.725 12.9353 146.05 12.9353 153.377 12.9353C153.377 13.321 153.377 13.7064 153.377 14.0921C147.748 14.0921 142.117 14.0921 136.488 14.0921C136.488 18.7963 136.488 23.5007 136.488 28.2049C141.27 28.2049 146.05 28.2049 150.832 28.2049C150.832 28.5133 150.832 28.8219 150.832 29.1303C146.05 29.1303 141.27 29.1303 136.488 29.1303C136.488 34.6066 136.488 40.0805 136.488 45.5567C142.117 45.5567 147.748 45.5567 153.377 45.5567C153.377 45.8644 153.377 46.1745 153.377 46.4822C146.05 46.4822 138.725 46.4822 131.398 46.4822C131.398 35.3006 131.398 24.1175 131.398 12.9353Z" fill="#2B0A60"/>
<path opacity="0.96" fill-rule="evenodd" clip-rule="evenodd" d="M159.624 12.9353C165.718 12.8966 171.809 12.9353 177.901 13.0509C183.77 14.4916 186.431 18.2317 185.883 24.2718C185.02 28.4506 182.514 31.0341 178.364 32.0223C184.025 35.1271 186.88 39.9463 186.924 46.4821C185.228 46.4821 183.53 46.4821 181.834 46.4821C181.457 41.2928 179.375 36.9363 175.587 33.4104C174.761 32.7996 173.836 32.4156 172.811 32.2536C170.113 32.138 167.413 32.0993 164.714 32.138C164.714 36.9201 164.714 41.7 164.714 46.4821C163.018 46.4821 161.32 46.4821 159.624 46.4821C159.624 35.3006 159.624 24.1175 159.624 12.9353ZM164.714 14.0921C167.721 14.0534 170.729 14.0921 173.736 14.2077C178.762 15.6875 181.038 19.0422 180.562 24.2718C179.504 28.4078 176.844 30.6827 172.58 31.0968C169.958 31.2125 167.337 31.2512 164.714 31.2125C164.714 25.5056 164.714 19.799 164.714 14.0921Z" fill="#2B0A60"/>
</svg>
