<svg width="130" height="32" viewBox="0 0 130 32" fill="none" xmlns="http://www.w3.org/2000/svg">
<g id="Group 1000003665">
<g id="Group 1000003664">
<g id="Group">
<path id="Vector" opacity="0.96" fill-rule="evenodd" clip-rule="evenodd" d="M114.508 0.00634766C115.1 6.12263 118.287 9.48848 124.069 10.1039C119.224 10.503 116.133 13.1754 114.796 18.1207C114.681 18.8503 114.604 19.5847 114.566 20.3238C113.969 14.1412 110.763 10.7345 104.947 10.1039C109.099 9.89164 112.036 7.7905 113.759 3.80057C114.193 2.57602 114.443 1.31132 114.508 0.00634766Z" fill="white"/>
</g>
<g id="Group_2">
<path id="Vector_2" opacity="0.984" fill-rule="evenodd" clip-rule="evenodd" d="M99.1879 13.3474C106.263 13.7283 111.12 17.4001 113.759 24.3629C114.065 25.4983 114.334 26.6407 114.566 27.7899C115.528 21.3839 118.81 16.9165 124.414 14.3877C126.198 13.6843 128.041 13.3376 129.943 13.3474C130.383 19.6521 128.271 24.7315 123.608 28.5855C117.707 32.6352 111.756 32.7168 105.754 28.8302C100.865 24.9829 98.6768 19.8219 99.1879 13.3474Z" fill="white"/>
</g>
</g>
<g id="Group 1000003663">
<g id="Group_3">
<path id="Vector_3" opacity="0.923" fill-rule="evenodd" clip-rule="evenodd" d="M7.30368 6.60433C10.1822 6.21536 12.6779 7.05168 14.7909 9.11341C14.4185 9.50911 14.0537 9.89673 13.6966 10.2762C12.8961 9.10007 11.8786 8.18211 10.6441 7.52228C6.99636 6.55304 4.59664 7.96058 3.44487 11.7449C2.93194 14.1397 2.85522 16.5467 3.21449 18.9661C3.90781 23.3797 6.30753 25.1948 10.4138 24.4127C11.8187 23.8582 12.913 22.8999 13.6966 21.5364C14.0422 21.9036 14.3878 22.2708 14.7333 22.638C14.3849 23.2108 13.9049 23.6796 13.2935 24.0455C9.90233 25.8594 6.60022 25.6966 3.38728 23.5559C0.668258 21.0432 -0.387558 17.8817 0.2196 14.0704C1.04135 9.91289 3.40271 7.42425 7.30368 6.60433Z" fill="white"/>
</g>
<g id="Group_4">
<path id="Vector_4" opacity="0.936" fill-rule="evenodd" clip-rule="evenodd" d="M37.0224 6.60468C41.3643 6.24826 44.4937 8.12494 46.4103 12.2348C47.956 17.1563 46.7465 21.0925 42.7818 24.0459C39.5008 25.8683 36.314 25.7055 33.2212 23.5563C29.7331 20.4205 28.7923 16.5646 30.3991 11.99C31.761 9.01229 33.9687 7.21714 37.0224 6.60468ZM37.1376 7.21665C40.2647 6.74482 42.3957 8.05027 43.5306 11.1333C44.3282 14.1816 44.3666 17.242 43.6458 20.3128C42.4408 23.9014 40.0794 25.2674 36.5617 24.413C35.0628 23.8806 34.0069 22.8403 33.394 21.292C32.2906 17.838 32.2523 14.3701 33.2788 10.8885C34.012 8.98647 35.2983 7.76253 37.1376 7.21665Z" fill="white"/>
</g>
<g id="Group_5">
<path id="Vector_5" opacity="0.93" fill-rule="evenodd" clip-rule="evenodd" d="M54.7613 6.60447C57.4599 6.16605 59.7061 7.02281 61.4998 9.17475C61.5733 9.31048 61.6309 9.45319 61.6726 9.60313C61.3048 9.99283 60.9016 10.3397 60.4631 10.6435C59.0518 7.27249 56.7673 6.35454 53.6094 7.88961C52.7524 8.73719 52.5413 9.73678 52.9759 10.8883C53.3365 11.3941 53.7397 11.8633 54.1853 12.2958C56.2395 13.5705 58.2744 14.8761 60.2903 16.2124C62.5346 18.1034 62.861 20.3273 61.2694 22.8829C59.4249 24.9367 57.1787 25.6919 54.5309 25.1472C52.4263 24.583 50.8137 23.3174 49.693 21.353C50.1049 20.9099 50.5657 20.5831 51.0753 20.3738C52.3235 24.015 54.7041 25.321 58.2169 24.2904C59.5802 23.5757 60.1369 22.4129 59.8872 20.8022C59.5829 19.9479 59.0646 19.2747 58.3321 18.7827C56.9305 17.8537 55.5099 16.9568 54.0701 16.09C53.0597 15.3834 52.1574 14.5471 51.3632 13.5809C50.3491 11.7584 50.3875 9.96333 51.4784 8.19559C52.423 7.29746 53.5172 6.76713 54.7613 6.60447Z" fill="white"/>
</g>
<g id="Group_6">
<path id="Vector_6" opacity="0.976" fill-rule="evenodd" clip-rule="evenodd" d="M17.901 6.84961C18.7457 6.84961 19.5905 6.84961 20.4351 6.84961C20.4351 12.6021 20.4351 18.3547 20.4351 24.1072C23.238 24.1072 26.041 24.1072 28.8439 24.1072C28.8439 24.27 28.8439 24.434 28.8439 24.5968C25.1962 24.5968 21.5487 24.5968 17.901 24.5968C17.901 18.6815 17.901 12.7653 17.901 6.84961Z" fill="white"/>
</g>
<g id="Group_7">
<path id="Vector_7" opacity="0.97" fill-rule="evenodd" clip-rule="evenodd" d="M65.4738 6.84961C69.1218 6.84961 72.7686 6.84961 76.4166 6.84961C76.4166 7.05364 76.4166 7.25755 76.4166 7.46158C73.6141 7.46158 70.8104 7.46158 68.0079 7.46158C68.0079 9.95022 68.0079 12.439 68.0079 14.9276C70.3888 14.9276 72.7686 14.9276 75.1496 14.9276C75.1496 15.0908 75.1496 15.2541 75.1496 15.4172C72.7686 15.4172 70.3888 15.4172 68.0079 15.4172C68.0079 18.3143 68.0079 21.2101 68.0079 24.1072C70.8104 24.1072 73.6141 24.1072 76.4166 24.1072C76.4166 24.27 76.4166 24.434 76.4166 24.5968C72.7686 24.5968 69.1218 24.5968 65.4738 24.5968C65.4738 18.6815 65.4738 12.7653 65.4738 6.84961Z" fill="white"/>
</g>
<g id="Group_8">
<path id="Vector_8" opacity="0.96" fill-rule="evenodd" clip-rule="evenodd" d="M79.5267 6.84946C82.5608 6.82902 85.5937 6.84946 88.6266 6.91066C91.5489 7.67281 92.8736 9.65144 92.6006 12.8468C92.1709 15.0575 90.9235 16.4242 88.857 16.947C91.6756 18.5895 93.0971 21.139 93.1189 24.5966C92.2746 24.5966 91.4291 24.5966 90.5848 24.5966C90.3971 21.8513 89.3604 19.5466 87.4747 17.6814C87.0635 17.3582 86.6027 17.1551 86.0925 17.0694C84.7494 17.0082 83.4051 16.9877 82.0609 17.0082C82.0609 19.5381 82.0609 22.0667 82.0609 24.5966C81.2165 24.5966 80.3711 24.5966 79.5267 24.5966C79.5267 18.6813 79.5267 12.7651 79.5267 6.84946ZM82.0609 7.46144C83.5583 7.441 85.0558 7.46144 86.5532 7.52263C89.0551 8.30547 90.1886 10.0802 89.9513 12.8468C89.4249 15.0348 88.1002 16.2383 85.9773 16.4574C84.6722 16.5186 83.3671 16.539 82.0609 16.5186C82.0609 13.4995 82.0609 10.4805 82.0609 7.46144Z" fill="white"/>
</g>
</g>
</g>
</svg>
