<svg width="17" height="17" viewBox="0 0 17 17" fill="none" xmlns="http://www.w3.org/2000/svg">
<path id="Path" fill-rule="evenodd" clip-rule="evenodd" d="M16.6156 0.384422C16.103 -0.128141 15.2487 -0.128141 14.7362 0.384422L8.5 6.6206L2.30653 0.384422C1.79397 -0.128141 0.939699 -0.128141 0.427136 0.384422C-0.0854271 0.896985 -0.0854271 1.75126 0.427136 2.26382L6.6206 8.5L0.384422 14.6935C-0.128141 15.206 -0.128141 16.0603 0.384422 16.5729C0.640704 16.8291 0.982412 16.9573 1.32412 16.9573C1.66583 16.9573 2.00754 16.8291 2.26382 16.5729L8.5 10.3794L14.6935 16.6156C14.9497 16.8719 15.2915 17 15.6332 17C15.9749 17 16.3166 16.8719 16.5729 16.6156C17.0854 16.103 17.0854 15.2487 16.5729 14.7362L10.3794 8.5L16.6156 2.30653C17.1281 1.75126 17.1281 0.939699 16.6156 0.384422Z" fill="#6B6C75"/>
</svg>
