<svg width="24" height="20" viewBox="0 0 24 20" fill="none" xmlns="http://www.w3.org/2000/svg">
<g id="fluent:people-community-24-filled">
<path id="Vector" d="M7.5 6.66699C8.29565 6.66699 9.05871 6.4036 9.62132 5.93476C10.1839 5.46592 10.5 4.83003 10.5 4.16699C10.5 3.50395 10.1839 2.86807 9.62132 2.39923C9.05871 1.93038 8.29565 1.66699 7.5 1.66699C6.70435 1.66699 5.94129 1.93038 5.37868 2.39923C4.81607 2.86807 4.5 3.50395 4.5 4.16699C4.5 4.83003 4.81607 5.46592 5.37868 5.93476C5.94129 6.4036 6.70435 6.66699 7.5 6.66699ZM2 8.97366C2 8.15866 2.791 7.50033 3.768 7.50033H8.535C8.1834 8.00684 7.99883 8.58184 8 9.16699C7.99933 9.63998 8.11976 10.1076 8.35325 10.5388C8.58674 10.9699 8.92792 11.3545 9.354 11.667H8.268C7.7044 11.667 7.15421 11.8103 6.6909 12.0777C6.22758 12.3451 5.87318 12.724 5.675 13.1637C4.177 12.8587 3.248 12.1778 2.701 11.4195C2 10.447 2 9.44699 2 9.27283V8.97366ZM16 9.16699C16.0012 8.58183 15.8166 8.00682 15.465 7.50033H20.232C21.21 7.50033 22 8.15949 22 8.97366V9.27366C22 9.44616 22 10.447 21.3 11.4195C20.752 12.1778 19.823 12.8587 18.325 13.1637C18.1269 12.7239 17.7726 12.345 17.3092 12.0776C16.8459 11.8101 16.2956 11.6669 15.732 11.667H14.646C15.0721 11.3545 15.4133 10.9699 15.6468 10.5388C15.8802 10.1076 16.0007 9.63998 16 9.16699ZM19.5 4.16699C19.5 4.83003 19.1839 5.46592 18.6213 5.93476C18.0587 6.4036 17.2956 6.66699 16.5 6.66699C15.7044 6.66699 14.9413 6.4036 14.3787 5.93476C13.8161 5.46592 13.5 4.83003 13.5 4.16699C13.5 3.50395 13.8161 2.86807 14.3787 2.39923C14.9413 1.93038 15.7044 1.66699 16.5 1.66699C17.2956 1.66699 18.0587 1.93038 18.6213 2.39923C19.1839 2.86807 19.5 3.50395 19.5 4.16699ZM6.5 13.9737C6.5 13.1587 7.291 12.5003 8.268 12.5003H15.732C16.709 12.5003 17.5 13.1595 17.5 13.9737V14.2737C17.5 14.4462 17.5 15.447 16.8 16.4195C16.057 17.4478 14.613 18.3337 12 18.3337C9.387 18.3337 7.942 17.4478 7.2 16.4195C6.5 15.447 6.5 14.447 6.5 14.2728V13.9737ZM12 11.667C12.394 11.667 12.7841 11.6023 13.1481 11.4767C13.512 11.3511 13.8427 11.1669 14.1213 10.9348C14.3999 10.7026 14.6209 10.427 14.7716 10.1237C14.9224 9.82039 15 9.4953 15 9.16699C15 8.83869 14.9224 8.5136 14.7716 8.21028C14.6209 7.90697 14.3999 7.63137 14.1213 7.39922C13.8427 7.16708 13.512 6.98293 13.1481 6.85729C12.7841 6.73166 12.394 6.66699 12 6.66699C11.2044 6.66699 10.4413 6.93038 9.87868 7.39922C9.31607 7.86807 9 8.50395 9 9.16699C9 9.83003 9.31607 10.4659 9.87868 10.9348C10.4413 11.4036 11.2044 11.667 12 11.667Z" fill="white"/>
</g>
</svg>
