<svg width="24" height="20" viewBox="0 0 24 20" fill="none" xmlns="http://www.w3.org/2000/svg">
<g id="fluent:people-community-24-filled">
<path id="Vector" d="M7.5 6.6665C8.29565 6.6665 9.05871 6.40311 9.62132 5.93427C10.1839 5.46543 10.5 4.82955 10.5 4.1665C10.5 3.50346 10.1839 2.86758 9.62132 2.39874C9.05871 1.9299 8.29565 1.6665 7.5 1.6665C6.70435 1.6665 5.94129 1.9299 5.37868 2.39874C4.81607 2.86758 4.5 3.50346 4.5 4.1665C4.5 4.82955 4.81607 5.46543 5.37868 5.93427C5.94129 6.40311 6.70435 6.6665 7.5 6.6665ZM2 8.97317C2 8.15817 2.791 7.49984 3.768 7.49984H8.535C8.1834 8.00635 7.99883 8.58135 8 9.1665C7.99933 9.63949 8.11976 10.1072 8.35325 10.5383C8.58674 10.9694 8.92792 11.354 9.354 11.6665H8.268C7.7044 11.6665 7.15421 11.8098 6.6909 12.0772C6.22758 12.3447 5.87318 12.7235 5.675 13.1632C4.177 12.8582 3.248 12.1773 2.701 11.419C2 10.4465 2 9.4465 2 9.27234V8.97317ZM16 9.1665C16.0012 8.58135 15.8166 8.00634 15.465 7.49984H20.232C21.21 7.49984 22 8.159 22 8.97317V9.27317C22 9.44567 22 10.4465 21.3 11.419C20.752 12.1773 19.823 12.8582 18.325 13.1632C18.1269 12.7234 17.7726 12.3445 17.3092 12.0771C16.8459 11.8096 16.2956 11.6664 15.732 11.6665H14.646C15.0721 11.354 15.4133 10.9694 15.6468 10.5383C15.8802 10.1072 16.0007 9.63949 16 9.1665ZM19.5 4.1665C19.5 4.82955 19.1839 5.46543 18.6213 5.93427C18.0587 6.40311 17.2956 6.6665 16.5 6.6665C15.7044 6.6665 14.9413 6.40311 14.3787 5.93427C13.8161 5.46543 13.5 4.82955 13.5 4.1665C13.5 3.50346 13.8161 2.86758 14.3787 2.39874C14.9413 1.9299 15.7044 1.6665 16.5 1.6665C17.2956 1.6665 18.0587 1.9299 18.6213 2.39874C19.1839 2.86758 19.5 3.50346 19.5 4.1665ZM6.5 13.9732C6.5 13.1582 7.291 12.4998 8.268 12.4998H15.732C16.709 12.4998 17.5 13.159 17.5 13.9732V14.2732C17.5 14.4457 17.5 15.4465 16.8 16.419C16.057 17.4473 14.613 18.3332 12 18.3332C9.387 18.3332 7.942 17.4473 7.2 16.419C6.5 15.4465 6.5 14.4465 6.5 14.2723V13.9732ZM12 11.6665C12.394 11.6665 12.7841 11.6018 13.1481 11.4762C13.512 11.3506 13.8427 11.1664 14.1213 10.9343C14.3999 10.7021 14.6209 10.4265 14.7716 10.1232C14.9224 9.8199 15 9.49481 15 9.1665C15 8.8382 14.9224 8.51311 14.7716 8.20979C14.6209 7.90648 14.3999 7.63088 14.1213 7.39874C13.8427 7.16659 13.512 6.98244 13.1481 6.8568C12.7841 6.73117 12.394 6.6665 12 6.6665C11.2044 6.6665 10.4413 6.9299 9.87868 7.39874C9.31607 7.86758 9 8.50346 9 9.1665C9 9.82955 9.31607 10.4654 9.87868 10.9343C10.4413 11.4031 11.2044 11.6665 12 11.6665Z" fill="#939393"/>
</g>
</svg>
