<svg width="18" height="19" viewBox="0 0 18 19" fill="none" xmlns="http://www.w3.org/2000/svg">
<g id="icons">
<path id="Vector" d="M11.0553 7.25L10.7957 14M7.20433 14L6.94471 7.25M14.4207 4.84293C14.6772 4.88166 14.9328 4.9231 15.1875 4.96722M14.4207 4.84293L13.6199 15.2544C13.5522 16.1336 12.8191 16.8125 11.9373 16.8125H6.06268C5.1809 16.8125 4.44778 16.1336 4.38015 15.2544L3.57926 4.84293M14.4207 4.84293C13.5609 4.71308 12.6911 4.61364 11.8125 4.54574M2.8125 4.96722C3.06718 4.9231 3.32278 4.88166 3.57926 4.84293M3.57926 4.84293C4.43908 4.71308 5.30887 4.61364 6.1875 4.54574M11.8125 4.54574V3.85864C11.8125 2.97412 11.1295 2.23567 10.2454 2.20739C9.83192 2.19416 9.41674 2.1875 9 2.1875C8.58326 2.1875 8.16808 2.19416 7.75456 2.20739C6.87049 2.23567 6.1875 2.97412 6.1875 3.85864V4.54574M11.8125 4.54574C10.8844 4.47403 9.94648 4.4375 9 4.4375C8.05352 4.4375 7.11558 4.47403 6.1875 4.54574" stroke="#747A8B" stroke-width="1.5" stroke-linecap="round" stroke-linejoin="round"/>
</g>
</svg>
