<svg width="13" height="14" viewBox="0 0 13 14" fill="none" xmlns="http://www.w3.org/2000/svg">
<g id="Group">
<g id="Group_2">
<g id="Group_3">
<path id="Vector" d="M8.91089 6.01562C8.91089 5.71359 8.66605 5.46875 8.36401 5.46875H2.7312C2.42916 5.46875 2.18433 5.71359 2.18433 6.01562C2.18433 6.31766 2.42916 6.5625 2.7312 6.5625H8.36401C8.66605 6.5625 8.91089 6.31766 8.91089 6.01562Z" fill="#989CA0"/>
<path id="Vector_2" d="M2.7312 7.65625C2.42916 7.65625 2.18433 7.90109 2.18433 8.20312C2.18433 8.50516 2.42916 8.75 2.7312 8.75H6.15221C6.45424 8.75 6.69908 8.50516 6.69908 8.20312C6.69908 7.90109 6.45424 7.65625 6.15221 7.65625H2.7312Z" fill="#989CA0"/>
<path id="Vector_3" d="M4.0165 12.9062H2.1875C1.58441 12.9062 1.09375 12.4156 1.09375 11.8125V2.1875C1.09375 1.58441 1.58441 1.09375 2.1875 1.09375H8.91103C9.51412 1.09375 10.0048 1.58441 10.0048 2.1875V5.55078C10.0048 5.85282 10.2496 6.09766 10.5517 6.09766C10.8537 6.09766 11.0985 5.85282 11.0985 5.55078V2.1875C11.0985 0.981313 10.1172 0 8.91103 0H2.1875C0.981313 0 0 0.981313 0 2.1875V11.8125C0 13.0187 0.981313 14 2.1875 14H4.0165C4.31854 14 4.56337 13.7552 4.56337 13.4531C4.56337 13.1511 4.31854 12.9062 4.0165 12.9062Z" fill="#989CA0"/>
<path id="Vector_4" d="M12.0671 7.91781C11.4274 7.27813 10.3866 7.27811 9.74733 7.91738L6.74491 10.9132C6.68114 10.9768 6.63411 11.0552 6.60792 11.1413L5.95404 13.294C5.89608 13.4848 5.94658 13.6921 6.08587 13.8348C6.19021 13.9418 6.33196 13.9998 6.47735 13.9998C6.52599 13.9998 6.5751 13.9933 6.62331 13.9799L8.83063 13.3685C8.92147 13.3434 9.00427 13.2952 9.07099 13.2285L12.0671 10.238C12.7068 9.59836 12.7068 8.55755 12.0671 7.91781ZM8.40008 12.3529L7.2896 12.6605L7.61458 11.5905L9.64045 9.56916L10.414 10.3427L8.40008 12.3529ZM11.2941 9.46432L11.1882 9.57006L10.4147 8.79664L10.5203 8.69126C10.7336 8.47803 11.0805 8.47803 11.2937 8.69126C11.507 8.90448 11.507 9.25142 11.2941 9.46432Z" fill="#989CA0"/>
<path id="Vector_5" d="M8.36401 3.28125H2.7312C2.42916 3.28125 2.18433 3.52609 2.18433 3.82812C2.18433 4.13016 2.42916 4.375 2.7312 4.375H8.36401C8.66605 4.375 8.91089 4.13016 8.91089 3.82812C8.91089 3.52609 8.66605 3.28125 8.36401 3.28125Z" fill="#989CA0"/>
</g>
</g>
</g>
</svg>
