<svg width="16" height="16" viewBox="0 0 16 16" fill="none" xmlns="http://www.w3.org/2000/svg">
<g id="majesticons:edit-pen-2-line">
<path id="Vector" d="M9.33341 4.00022L10.8621 2.47156C10.9871 2.34658 11.1566 2.27637 11.3334 2.27637C11.5102 2.27637 11.6797 2.34658 11.8047 2.47156L13.5287 4.19556C13.6537 4.32058 13.7239 4.49012 13.7239 4.66689C13.7239 4.84367 13.6537 5.01321 13.5287 5.13822L12.0001 6.66689M9.33341 4.00022L2.86208 10.4716C2.73705 10.5966 2.66679 10.7661 2.66675 10.9429V12.6669C2.66675 12.8437 2.73699 13.0133 2.86201 13.1383C2.98703 13.2633 3.1566 13.3336 3.33341 13.3336H5.05741C5.23421 13.3335 5.40375 13.2633 5.52875 13.1382L12.0001 6.66689M9.33341 4.00022L12.0001 6.66689" stroke="#5F5F5F" stroke-width="2" stroke-linecap="round" stroke-linejoin="round"/>
</g>
</svg>
