<svg width="45" height="46" viewBox="0 0 45 46" fill="none" xmlns="http://www.w3.org/2000/svg">
<g id="tiredness_tired_fatigue_icon_134898 (1) 1" clip-path="url(#clip0_1329_4112)">
<path id="Vector" d="M20.8477 45.2598C20.1445 43.959 19.4414 42.5879 18.7383 40.7246L11.2148 33.7637L9.21094 34.7832C6.11719 37.2793 3.58594 40.8301 1.86328 45.2598H20.8477Z" fill="#FFB5D4"/>
<path id="Vector_2" d="M30.375 15.3421C30.9023 19.0335 28.3008 21.1429 27.7383 21.7757C27.1758 22.4085 16.8047 26.9085 15.8555 30.6702C14.9062 34.4319 15.6797 34.889 15.6797 34.889C15.6797 34.889 13.0781 34.889 11.1094 36.2601C6.25781 39.7054 2.84766 37.2444 0.914062 33.764C3.58594 28.9827 0.703125 14.1819 9.80859 8.20538C17.4375 3.21319 29.0742 6.48272 30.375 15.3421Z" fill="#550F02"/>
<path id="Vector_3" d="M20.0742 31.7949C20.0742 31.7949 18.2109 39.1777 18.7383 40.7246C12.8672 41.2871 11.25 37.1738 11.1445 36.2598C12.6563 34.7129 13.3594 31.1973 13.6055 23.0059C20.0391 27.7871 20.0742 31.7949 20.0742 31.7949Z" fill="#C1694F"/>
<path id="Vector_4" d="M14.6597 27.5413C14.3785 30.1428 15.855 34.01 19.1246 35.9788C19.5464 33.8342 20.0386 31.7952 20.0386 31.7952C20.0386 31.7952 14.8003 26.2053 14.6597 27.5413Z" fill="#C1694F"/>
<path id="Vector_5" d="M28.3356 16.9238C28.6872 19.2792 27.9137 19.9472 27.8434 22.8652C27.8083 24.9745 27.527 27.6113 28.195 28.455C27.4567 29.4745 25.8044 28.9824 25.8044 28.9824C25.8044 28.9824 25.0309 31.6542 24.2575 32.6386C23.3083 33.7285 21.6911 34.8535 19.6872 34.0097C13.113 31.1972 12.9372 23.4277 12.9372 23.4277C12.9372 23.4277 10.3356 24.9042 9.98404 22.5136C9.63248 20.123 12.2692 16.9941 13.8512 20.4745C14.8708 16.9589 18.3512 16.1152 20.6715 15.3066C26.8239 13.162 27.9489 14.5683 28.3356 16.9238Z" fill="#C1694F"/>
<path id="Vector_6" d="M13.2539 17.8028C13.6757 18.7169 13.8515 20.5099 13.8515 20.5099C13.8515 20.5099 22.0429 21.0724 23.6601 15.9747C24.5742 17.0294 24.1875 18.963 24.1875 18.963C24.1875 18.963 27.8437 20.0177 28.9335 17.6622C32.625 9.4708 17.3671 9.22471 14.6601 11.2286C11.9531 13.2325 12.6562 16.502 13.2539 17.8028Z" fill="#550F02"/>
<g id="Group">
<path id="Vector_7" d="M12.3752 20.4746C12.3049 20.6855 12.1994 20.8613 12.1291 21.0371C12.0588 21.2129 12.0236 21.3184 11.9885 21.459C11.9533 21.5996 11.9182 21.7402 11.9182 21.916C11.883 21.9863 11.9182 22.0918 11.883 22.1973C11.883 22.3027 11.883 22.4082 11.8479 22.5488V22.584C11.8127 22.6895 11.7072 22.7598 11.6018 22.7246C11.5666 22.7246 11.5666 22.7246 11.5315 22.6895C11.426 22.6191 11.3205 22.5137 11.215 22.4082C11.1447 22.3027 11.0393 22.1973 11.0041 22.0566C10.8986 21.8105 10.8635 21.4941 10.969 21.1777C11.0393 20.8613 11.215 20.6152 11.426 20.4395C11.6369 20.2637 11.9182 20.1582 12.2346 20.1582C12.34 20.1582 12.4104 20.2637 12.4104 20.3691C12.4104 20.4043 12.4104 20.4043 12.4104 20.4395L12.3752 20.4746Z" fill="#9E4B32"/>
</g>
<path id="Vector_8" d="M29.3906 3.10742L32.3789 3.45898L29.3555 6.86914L31.9922 7.39648" stroke="white" stroke-width="4" stroke-miterlimit="10"/>
<path id="Vector_9" d="M34.418 1.45508L38.1445 1.87695L34.3828 6.16602L37.6875 6.79883" stroke="white" stroke-width="4" stroke-miterlimit="10"/>
</g>
<defs>
<clipPath id="clip0_1329_4112">
<rect width="45" height="45" fill="white" transform="translate(0 0.259766)"/>
</clipPath>
</defs>
</svg>
