<svg width="45" height="46" viewBox="0 0 45 46" fill="none" xmlns="http://www.w3.org/2000/svg">
<g id="fever_high_temperature_icon_134900 1" clip-path="url(#clip0_1329_4130)">
<path id="Vector" d="M14.7656 32.252C11.6016 36.1191 9.14062 38.9316 8.78906 45.2598C11.9531 45.2598 31.6406 45.2598 31.6406 45.2598C30.9727 42.9043 28.1602 39.8457 25.3125 36.1191L16.5234 30.8457L14.7656 32.252Z" fill="#FFB5D4"/>
<path id="Vector_2" d="M31.5 8.90801C32.8008 12.4236 30.6562 15.0252 30.2344 15.7635C29.8125 16.5018 20.5664 22.9705 20.4258 26.8729C20.2852 30.7752 21.1289 31.0564 21.1289 31.0564C21.1289 31.0564 18.668 31.6893 16.9453 33.3416C11.1797 38.8963 6.75 34.8533 4.92188 31.5838C8.08594 25.9588 2.21484 13.8299 9.91406 6.13067C16.3828 -0.373238 28.4414 0.470512 31.5 8.90801Z" fill="#892E1D"/>
<path id="Vector_3" d="M24.7852 27.1191C24.7852 27.1191 24.4688 34.7129 25.3125 36.1191C19.6875 37.877 16.9453 33.3066 16.9453 33.3066C16.9453 33.3066 18.9844 31.5488 16.6289 19.8066C23.9414 23.1816 24.7852 27.1191 24.7852 27.1191Z" fill="#FFC298"/>
<path id="Vector_4" d="M24.7152 30.3185C24.7152 28.5607 24.7855 27.1193 24.7855 27.1193C24.7855 27.1193 18.4926 22.6896 18.6332 24.0255C18.8793 26.6974 20.9887 29.1232 24.7152 30.3185Z" fill="#E1927A"/>
<path id="Vector_5" d="M29.8127 10.8413C30.6564 13.0913 29.9885 13.8999 30.551 16.7476C30.9377 18.8218 31.5002 21.0718 32.3439 21.7749C31.5002 23.1812 29.8127 23.1812 29.8127 23.1812C29.8127 23.1812 29.7424 29.7905 24.7853 28.8062C17.7892 27.3999 16.1017 20.4038 16.1017 20.4038C16.1017 20.4038 13.8517 22.3726 13.008 20.1226C12.1642 17.8726 14.133 14.2515 16.383 17.3101C16.6642 13.6538 19.8986 12.1069 21.9728 10.8765C27.5978 7.50148 29.0041 8.62648 29.8127 10.8413Z" fill="#FFC298"/>
<path id="Vector_6" d="M29.8127 10.8413C30.6564 13.0913 29.9885 13.8999 30.551 16.7476C30.9377 18.8218 31.5002 21.0718 32.3439 21.7749C31.5002 23.1812 29.8127 23.1812 29.8127 23.1812C29.8127 23.1812 29.7424 29.7905 24.7853 28.8062C17.7892 27.3999 16.1017 20.4038 16.1017 20.4038C16.1017 20.4038 13.8517 22.3726 13.008 20.1226C12.1642 17.8726 14.133 14.2515 16.383 17.3101C16.6642 13.6538 19.8986 12.1069 21.9728 10.8765C27.5978 7.50148 29.0041 8.62648 29.8127 10.8413Z" fill="#FFC298"/>
<path id="Vector_7" d="M30.2344 15.7287C30.3047 15.7287 30.3398 15.7287 30.375 15.7287C30.1289 13.6545 30.5156 12.7756 29.8125 10.842C28.9688 8.59198 27.5625 7.46698 21.9727 10.842C20.0742 11.967 17.0508 14.2873 16.3828 17.2756C18.1758 17.0646 26.1914 15.9045 30.2344 15.7287Z" fill="url(#paint0_linear_1329_4130)"/>
<path id="Vector_8" d="M15.258 14.7795C15.8556 15.5881 16.383 17.3108 16.383 17.3108C16.383 17.3108 24.5041 16.1858 25.0666 10.8772C26.1916 11.721 26.1916 13.6897 26.1916 13.6897C26.1916 13.6897 29.2853 13.4085 29.8478 10.8772C31.7814 2.08814 17.508 5.56861 15.258 8.0647C13.008 10.5608 14.4142 13.6545 15.258 14.7795Z" fill="#892E1D"/>
<g id="Group">
<path id="Vector_9" d="M14.9414 17.5922C14.9062 17.8382 14.8359 18.014 14.8359 18.1898C14.8008 18.3656 14.8008 18.5062 14.7656 18.6468C14.7656 18.7875 14.7656 18.9281 14.7656 19.1039C14.7656 19.2093 14.8008 19.2797 14.8008 19.3851C14.8008 19.4906 14.8359 19.5961 14.8359 19.7367V19.7718C14.8359 19.8773 14.7305 19.9828 14.625 19.9828C14.5898 19.9828 14.5898 19.9828 14.5547 19.9828C14.4141 19.9476 14.3086 19.8773 14.2031 19.7718C14.0977 19.6664 13.9922 19.5961 13.9219 19.4554C13.7812 19.1742 13.7109 18.8929 13.7109 18.5765C13.7109 18.2601 13.8516 17.9789 14.0273 17.7328C14.2031 17.5218 14.4492 17.3461 14.7305 17.3109C14.8359 17.2757 14.9414 17.3461 14.9414 17.4515C14.9414 17.4867 14.9414 17.4867 14.9414 17.5218V17.5922Z" fill="#E1927A"/>
</g>
<path id="Vector_10" d="M21.937 20.1582C21.5151 20.5801 20.7769 20.5801 20.355 20.1582C20.0034 19.8066 19.9331 19.2793 20.144 18.8223L21.1284 16.9941L22.1128 18.8223C22.3589 19.2793 22.2886 19.8066 21.937 20.1582Z" fill="#5DCFE2"/>
<path id="Vector_11" d="M24.9956 17.9082C24.5737 18.3301 23.8354 18.3301 23.4136 17.9082C23.062 17.5566 22.9917 17.0293 23.2026 16.5723L24.187 14.7441L25.1714 16.5723C25.4175 17.0293 25.3472 17.5566 24.9956 17.9082Z" fill="#5DCFE2"/>
<path id="Vector_12" d="M38.6719 18.1895C40.6135 18.1895 42.1875 16.6155 42.1875 14.6738C42.1875 12.7322 40.6135 11.1582 38.6719 11.1582C36.7302 11.1582 35.1562 12.7322 35.1562 14.6738C35.1562 16.6155 36.7302 18.1895 38.6719 18.1895Z" fill="white"/>
<path id="Vector_13" d="M38.6719 4.4082V14.3223" stroke="white" stroke-width="14" stroke-miterlimit="10" stroke-linecap="round" stroke-linejoin="round"/>
<path id="Vector_14" d="M38.6719 4.4082V14.3223" stroke="#C6C6C6" stroke-width="6" stroke-miterlimit="10" stroke-linecap="round"/>
<path id="Vector_15" d="M38.6719 7.00977V14.3223" stroke="#E44450" stroke-width="6" stroke-miterlimit="10"/>
<path id="Vector_16" d="M38.6719 16.7832C39.8369 16.7832 40.7812 15.8388 40.7812 14.6738C40.7812 13.5089 39.8369 12.5645 38.6719 12.5645C37.5069 12.5645 36.5625 13.5089 36.5625 14.6738C36.5625 15.8388 37.5069 16.7832 38.6719 16.7832Z" fill="#E44450"/>
</g>
<defs>
<linearGradient id="paint0_linear_1329_4130" x1="23.4209" y1="15.836" x2="22.9156" y2="11.5377" gradientUnits="userSpaceOnUse">
<stop stop-color="#E44450" stop-opacity="0"/>
<stop offset="1" stop-color="#E44450"/>
</linearGradient>
<clipPath id="clip0_1329_4130">
<rect width="45" height="45" fill="white" transform="translate(0 0.259766)"/>
</clipPath>
</defs>
</svg>
