<svg width="24" height="24" viewBox="0 0 24 24" fill="none" xmlns="http://www.w3.org/2000/svg">
<g id="ph:flower-fill">
<path id="Vector" d="M19.72 12.1273C19.644 12.0832 19.5606 12.0411 19.4744 11.9998C19.5606 11.9586 19.644 11.9164 19.72 11.8723C20.1499 11.6279 20.5272 11.3008 20.8302 10.91C21.1332 10.5191 21.3559 10.0722 21.4855 9.5949C21.6151 9.11763 21.649 8.61944 21.5852 8.12901C21.5215 7.63859 21.3614 7.16562 21.1141 6.73733C20.8668 6.30904 20.5373 5.93389 20.1444 5.63348C19.7515 5.33307 19.3032 5.11334 18.825 4.98693C18.3469 4.86053 17.8485 4.82994 17.3585 4.89694C16.8685 4.96393 16.3966 5.12719 15.97 5.3773C15.894 5.42137 15.8153 5.47105 15.7375 5.52637C15.745 5.43262 15.7497 5.33887 15.7497 5.24512C15.7497 4.25056 15.3546 3.29673 14.6513 2.59347C13.9481 1.89021 12.9942 1.49512 11.9997 1.49512C11.0051 1.49512 10.0513 1.89021 9.34802 2.59347C8.64475 3.29673 8.24967 4.25056 8.24967 5.24512C8.24967 5.33324 8.24967 5.42699 8.26185 5.52637C8.18404 5.47293 8.10529 5.42137 8.02935 5.3773C7.60271 5.12719 7.13081 4.96393 6.64082 4.89694C6.15083 4.82994 5.65243 4.86053 5.17431 4.98693C4.69618 5.11334 4.24779 5.33307 3.85493 5.63348C3.46208 5.93389 3.13252 6.30904 2.88524 6.73733C2.63796 7.16562 2.47784 7.63859 2.41409 8.12901C2.35035 8.61944 2.38424 9.11763 2.51382 9.5949C2.64339 10.0722 2.8661 10.5191 3.1691 10.91C3.47211 11.3008 3.84943 11.6279 4.27935 11.8723C4.35529 11.9164 4.43873 11.9586 4.52498 11.9998C4.43873 12.0411 4.35529 12.0832 4.27935 12.1273C3.84943 12.3717 3.47211 12.6988 3.1691 13.0897C2.8661 13.4805 2.64339 13.9274 2.51382 14.4047C2.38424 14.882 2.35035 15.3802 2.41409 15.8706C2.47784 16.361 2.63796 16.834 2.88524 17.2623C3.13252 17.6906 3.46208 18.0657 3.85493 18.3661C4.24779 18.6665 4.69618 18.8863 5.17431 19.0127C5.65243 19.1391 6.15083 19.1697 6.64082 19.1027C7.13081 19.0357 7.60271 18.8724 8.02935 18.6223C8.10529 18.5782 8.18404 18.5286 8.26185 18.4732C8.25435 18.567 8.24967 18.6607 8.24967 18.7498C8.24967 19.7444 8.64475 20.6982 9.34802 21.4015C10.0513 22.1047 11.0051 22.4998 11.9997 22.4998C12.9942 22.4998 13.9481 22.1047 14.6513 21.4015C15.3546 20.6982 15.7497 19.7444 15.7497 18.7498C15.7497 18.6617 15.745 18.5679 15.7375 18.4732C15.8153 18.5267 15.894 18.5782 15.97 18.6223C16.538 18.9514 17.1829 19.1247 17.8394 19.1248C18.1692 19.1244 18.4976 19.0809 18.8162 18.9954C19.5326 18.8034 20.176 18.4033 20.665 17.8456C21.154 17.2879 21.4666 16.5977 21.5634 15.8624C21.6601 15.127 21.5366 14.3795 21.2085 13.7143C20.8804 13.0491 20.3624 12.4962 19.72 12.1254V12.1273ZM11.9997 14.6248C11.4805 14.6248 10.973 14.4709 10.5413 14.1824C10.1096 13.894 9.77316 13.484 9.57448 13.0043C9.3758 12.5247 9.32382 11.9969 9.42511 11.4877C9.52639 10.9785 9.7764 10.5108 10.1435 10.1437C10.5106 9.77654 10.9784 9.52653 11.4876 9.42524C11.9968 9.32396 12.5246 9.37594 13.0042 9.57462C13.4839 9.7733 13.8938 10.1098 14.1823 10.5414C14.4707 10.9731 14.6247 11.4806 14.6247 11.9998C14.6247 12.696 14.3481 13.3637 13.8558 13.856C13.3635 14.3482 12.6959 14.6248 11.9997 14.6248Z" fill="#FF49B4"/>
</g>
</svg>
