<svg width="20" height="20" viewBox="0 0 20 20" fill="none" xmlns="http://www.w3.org/2000/svg">
<g id="octicon:goal-16" clip-path="url(#clip0_940_12162)">
<path id="Vector" d="M17.0463 2.95341H17.045L19.14 3.37216C19.2525 3.39466 19.345 3.47716 19.3775 3.58841C19.3939 3.64245 19.3954 3.69993 19.3817 3.75474C19.3681 3.80954 19.3398 3.85963 19.3 3.89966L17.5838 5.61716C17.3784 5.82212 17.1001 5.93721 16.81 5.93716H15.3875L11.8125 9.51341C11.8807 9.77094 11.8932 10.04 11.8493 10.3028C11.8053 10.5656 11.7059 10.8159 11.5576 11.0372C11.4093 11.2585 11.2155 11.4457 10.9892 11.5863C10.7629 11.7268 10.5092 11.8175 10.2451 11.8524C9.98099 11.8872 9.71248 11.8653 9.45747 11.7882C9.20246 11.7112 8.96681 11.5806 8.7662 11.4053C8.5656 11.23 8.40465 11.014 8.29409 10.7716C8.18353 10.5292 8.12588 10.2661 8.125 9.99966C8.12519 9.71202 8.19151 9.42828 8.31883 9.17036C8.44615 8.91244 8.63107 8.68725 8.8593 8.51218C9.08752 8.33711 9.35295 8.21687 9.63505 8.16073C9.91715 8.10459 10.2084 8.11406 10.4862 8.18841L14.0625 4.61091V3.18966C14.0625 2.89966 14.1775 2.62091 14.3825 2.41591L16.1 0.698411C16.14 0.658572 16.1901 0.630327 16.2449 0.616681C16.2997 0.603034 16.3572 0.604496 16.4112 0.620911C16.5225 0.653411 16.605 0.74591 16.6275 0.85841L17.0463 2.95341Z" fill="white"/>
<path id="Vector_2" d="M2.49999 10.001C2.50128 11.0734 2.73255 12.1331 3.1782 13.1086C3.62386 14.0841 4.27353 14.9526 5.0834 15.6557C5.89327 16.3587 6.8445 16.8799 7.87291 17.184C8.90133 17.4882 9.98302 17.5683 11.045 17.4188C12.107 17.2694 13.1246 16.8939 14.0291 16.3178C14.9337 15.7417 15.7042 14.9782 16.2886 14.079C16.873 13.1798 17.2578 12.1657 17.4169 11.1051C17.5761 10.0445 17.506 8.96213 17.2112 7.93097C17.1699 7.8105 17.1534 7.68287 17.163 7.55584C17.1725 7.42882 17.2078 7.30507 17.2666 7.19211C17.3255 7.07916 17.4068 6.97937 17.5054 6.89882C17.6041 6.81826 17.7182 6.75864 17.8406 6.72357C17.9631 6.68849 18.0914 6.67871 18.2177 6.69481C18.3441 6.71091 18.4659 6.75256 18.5756 6.81721C18.6853 6.88187 18.7808 6.96819 18.8561 7.07091C18.9314 7.17363 18.9851 7.29061 19.0137 7.41472C19.5844 9.41163 19.476 11.5415 18.7056 13.4701C17.9351 15.3988 16.5462 17.0171 14.7568 18.0712C12.9673 19.1253 10.8785 19.5556 8.81818 19.2945C6.75781 19.0333 4.84242 18.0956 3.37249 16.6285C1.90417 15.1589 0.965461 13.2433 0.703747 11.1825C0.442033 9.12165 0.872133 7.03224 1.92652 5.24231C2.98091 3.45238 4.59987 2.0633 6.52924 1.29315C8.4586 0.522994 10.5891 0.415387 12.5862 0.987221C12.824 1.05674 13.0247 1.21756 13.1442 1.43454C13.2638 1.65152 13.2927 1.90701 13.2245 2.14519C13.1562 2.38337 12.9965 2.58486 12.7802 2.70563C12.5639 2.8264 12.3085 2.85664 12.07 2.78972C10.9532 2.4693 9.77728 2.41268 8.63489 2.6243C7.49249 2.83593 6.41487 3.31003 5.48698 4.00922C4.55909 4.70841 3.80629 5.61358 3.28794 6.65337C2.76959 7.69316 2.49985 8.83914 2.49999 10.001Z" fill="white"/>
<path id="Vector_3" d="M6.24999 9.99968C6.25006 10.6829 6.43667 11.3532 6.78969 11.9381C7.14271 12.5231 7.64874 13.0006 8.2532 13.3191C8.85766 13.6376 9.53761 13.785 10.2197 13.7455C10.9018 13.7059 11.5601 13.4809 12.1237 13.0947C12.6872 12.7075 13.1341 12.1736 13.4162 11.5508C13.6982 10.9279 13.8045 10.2398 13.7237 9.56093C13.7019 9.39618 13.7243 9.22858 13.7888 9.0754C13.8533 8.92221 13.9574 8.78898 14.0904 8.68941C14.2235 8.58983 14.3807 8.52753 14.5458 8.5089C14.711 8.49027 14.8781 8.516 15.03 8.58343C15.1819 8.64998 15.3133 8.75562 15.4111 8.88957C15.5088 9.02352 15.5692 9.18099 15.5862 9.34593C15.7221 10.5061 15.4934 11.6797 14.9319 12.7039C14.3704 13.7282 13.504 14.5522 12.4529 15.0617C11.4018 15.5712 10.2182 15.7408 9.06636 15.5471C7.91449 15.3533 6.8515 14.8058 6.02494 13.9805C5.19838 13.1552 4.64924 12.093 4.45374 10.9415C4.25824 9.7899 4.42608 8.60603 4.93397 7.55418C5.44185 6.50232 6.26459 5.63467 7.28798 5.07163C8.31137 4.5086 9.48466 4.27812 10.645 4.41218C10.7692 4.4237 10.8899 4.45992 11 4.5187C11.1101 4.57747 11.2073 4.65763 11.286 4.75447C11.3647 4.85131 11.4232 4.96288 11.4582 5.08265C11.4932 5.20242 11.504 5.32797 11.4898 5.45194C11.4757 5.57591 11.4369 5.69582 11.3759 5.80462C11.3148 5.91342 11.2326 6.00894 11.1341 6.08556C11.0356 6.16219 10.9228 6.21839 10.8024 6.25086C10.6819 6.28334 10.5561 6.29143 10.4325 6.27468C9.90706 6.21367 9.37467 6.26451 8.87028 6.42386C8.3659 6.58321 7.90093 6.84747 7.50592 7.19927C7.11091 7.55107 6.7948 7.98246 6.57834 8.4651C6.36189 8.94774 6.24998 9.47072 6.24999 9.99968Z" fill="white"/>
</g>
<defs>
<clipPath id="clip0_940_12162">
<rect width="20" height="20" fill="white"/>
</clipPath>
</defs>
</svg>
