<svg width="24" height="24" viewBox="0 0 24 24" fill="none" xmlns="http://www.w3.org/2000/svg">
<g id="material-symbols:power-rounded">
<path id="Vector" d="M12 13C11.7167 13 11.4793 12.904 11.288 12.712C11.096 12.5207 11 12.2833 11 12V4C11 3.71667 11.096 3.479 11.288 3.287C11.4793 3.09567 11.7167 3 12 3C12.2833 3 12.521 3.09567 12.713 3.287C12.9043 3.479 13 3.71667 13 4V12C13 12.2833 12.9043 12.5207 12.713 12.712C12.521 12.904 12.2833 13 12 13ZM12 21C10.75 21 9.57933 20.7627 8.488 20.288C7.396 19.8127 6.446 19.1707 5.638 18.362C4.82933 17.554 4.18733 16.604 3.712 15.512C3.23733 14.4207 3 13.25 3 12C3 10.85 3.20833 9.75 3.625 8.7C4.04167 7.65 4.64167 6.7 5.425 5.85C5.60833 5.65 5.84167 5.55 6.125 5.55C6.40833 5.55 6.65 5.65 6.85 5.85C7.03333 6.03333 7.11667 6.26233 7.1 6.537C7.08333 6.81233 6.98333 7.05833 6.8 7.275C6.21667 7.925 5.771 8.654 5.463 9.462C5.15433 10.2707 5 11.1167 5 12C5 13.95 5.67933 15.604 7.038 16.962C8.396 18.3207 10.05 19 12 19C13.95 19 15.604 18.3207 16.962 16.962C18.3207 15.604 19 13.95 19 12C19 11.1167 18.8417 10.2627 18.525 9.438C18.2083 8.61267 17.7583 7.875 17.175 7.225C16.9917 7.025 16.896 6.79167 16.888 6.525C16.8793 6.25833 16.9667 6.03333 17.15 5.85C17.35 5.65 17.5917 5.55 17.875 5.55C18.1583 5.55 18.3917 5.65 18.575 5.85C19.3583 6.7 19.9583 7.65 20.375 8.7C20.7917 9.75 21 10.85 21 12C21 13.25 20.7627 14.4207 20.288 15.512C19.8127 16.604 19.171 17.554 18.363 18.362C17.5543 19.1707 16.6043 19.8127 15.513 20.288C14.421 20.7627 13.25 21 12 21Z" fill="#5F5F5F"/>
</g>
</svg>
