<svg width="14" height="17" viewBox="0 0 14 17" fill="none" xmlns="http://www.w3.org/2000/svg">
<path d="M6.99992 16.3335C7.91658 16.3335 8.66658 15.5835 8.66658 14.6668H5.33325C5.33325 15.5835 6.08325 16.3335 6.99992 16.3335ZM11.9999 11.3335V7.16683C11.9999 4.6085 10.6416 2.46683 8.24992 1.90016V1.3335C8.24992 0.641829 7.69159 0.0834961 6.99992 0.0834961C6.30825 0.0834961 5.74992 0.641829 5.74992 1.3335V1.90016C3.36659 2.46683 1.99992 4.60016 1.99992 7.16683V11.3335L0.333252 13.0002V13.8335H13.6666V13.0002L11.9999 11.3335ZM10.3333 12.1668H3.66659V7.16683C3.66659 5.10016 4.92492 3.41683 6.99992 3.41683C9.07492 3.41683 10.3333 5.10016 10.3333 7.16683V12.1668Z" fill="#212337"/>
</svg>
