<svg width="20" height="20" viewBox="0 0 20 20" fill="none" xmlns="http://www.w3.org/2000/svg">
<g id="basil:notification-solid">
<path id="Vector" fill-rule="evenodd" clip-rule="evenodd" d="M10.8333 2.49984C10.8333 2.27882 10.7455 2.06686 10.5892 1.91058C10.433 1.7543 10.221 1.6665 9.99998 1.6665C9.77897 1.6665 9.56701 1.7543 9.41073 1.91058C9.25445 2.06686 9.16665 2.27882 9.16665 2.49984V3.12484H8.70248C7.80918 3.12478 6.94942 3.46516 6.29825 4.0767C5.64708 4.68824 5.25345 5.52495 5.19748 6.4165L5.01332 9.3615C4.94309 10.4844 4.56607 11.5664 3.92332 12.4898C3.79051 12.6807 3.70937 12.9027 3.68777 13.1343C3.66617 13.3658 3.70486 13.599 3.80008 13.8111C3.89529 14.0233 4.04379 14.2072 4.23112 14.345C4.41846 14.4827 4.63826 14.5697 4.86915 14.5973L7.70832 14.9373V15.8332C7.70832 16.441 7.94976 17.0239 8.37953 17.4536C8.8093 17.8834 9.3922 18.1248 9.99998 18.1248C10.6078 18.1248 11.1907 17.8834 11.6204 17.4536C12.0502 17.0239 12.2917 16.441 12.2917 15.8332V14.9373L15.1308 14.5965C15.3616 14.5688 15.5812 14.4818 15.7684 14.3441C15.9557 14.2064 16.1041 14.0226 16.1993 13.8106C16.2945 13.5985 16.3332 13.3655 16.3117 13.1341C16.2902 12.9026 16.2093 12.6807 16.0767 12.4898C15.4339 11.5665 15.0568 10.4844 14.9867 9.3615L14.8025 6.41734C14.7467 5.52564 14.3532 4.68872 13.702 4.077C13.0508 3.46529 12.1909 3.12479 11.2975 3.12484H10.8333V2.49984ZM8.95832 15.8332C8.95832 16.1094 9.06806 16.3744 9.26341 16.5697C9.45877 16.7651 9.72372 16.8748 9.99998 16.8748C10.2763 16.8748 10.5412 16.7651 10.7366 16.5697C10.9319 16.3744 11.0417 16.1094 11.0417 15.8332V15.2082H8.95832V15.8332Z" fill="#939393"/>
</g>
</svg>
