<svg width="20" height="20" viewBox="0 0 20 20" fill="none" xmlns="http://www.w3.org/2000/svg">
<g id="basil:notification-solid">
<path id="Vector" fill-rule="evenodd" clip-rule="evenodd" d="M10.8333 2.50033C10.8333 2.27931 10.7455 2.06735 10.5892 1.91107C10.433 1.75479 10.221 1.66699 9.99998 1.66699C9.77897 1.66699 9.56701 1.75479 9.41073 1.91107C9.25445 2.06735 9.16665 2.27931 9.16665 2.50033V3.12533H8.70248C7.80918 3.12527 6.94942 3.46565 6.29825 4.07719C5.64708 4.68873 5.25345 5.52544 5.19748 6.41699L5.01332 9.36199C4.94309 10.4849 4.56607 11.5669 3.92332 12.4903C3.79051 12.6812 3.70937 12.9032 3.68777 13.1348C3.66617 13.3663 3.70486 13.5995 3.80008 13.8116C3.89529 14.0238 4.04379 14.2077 4.23112 14.3455C4.41846 14.4832 4.63826 14.5702 4.86915 14.5978L7.70832 14.9378V15.8337C7.70832 16.4414 7.94976 17.0243 8.37953 17.4541C8.8093 17.8839 9.3922 18.1253 9.99998 18.1253C10.6078 18.1253 11.1907 17.8839 11.6204 17.4541C12.0502 17.0243 12.2917 16.4414 12.2917 15.8337V14.9378L15.1308 14.597C15.3616 14.5693 15.5812 14.4823 15.7684 14.3446C15.9557 14.2069 16.1041 14.0231 16.1993 13.811C16.2945 13.599 16.3332 13.366 16.3117 13.1346C16.2902 12.9031 16.2093 12.6812 16.0767 12.4903C15.4339 11.567 15.0568 10.4849 14.9867 9.36199L14.8025 6.41783C14.7467 5.52612 14.3532 4.6892 13.702 4.07749C13.0508 3.46578 12.1909 3.12528 11.2975 3.12533H10.8333V2.50033ZM8.95832 15.8337C8.95832 16.1099 9.06806 16.3749 9.26341 16.5702C9.45877 16.7656 9.72372 16.8753 9.99998 16.8753C10.2763 16.8753 10.5412 16.7656 10.7366 16.5702C10.9319 16.3749 11.0417 16.1099 11.0417 15.8337V15.2087H8.95832V15.8337Z" fill="white"/>
</g>
</svg>
