<svg width="24" height="24" viewBox="0 0 24 24" fill="none" xmlns="http://www.w3.org/2000/svg">
<g id="material-symbols:egg">
<path id="Vector" d="M12 21C10.05 21 8.39567 20.3207 7.037 18.962C5.67833 17.6033 4.99933 15.9493 5 14C5 12.7167 5.21267 11.425 5.638 10.125C6.06333 8.825 6.61333 7.64567 7.288 6.587C7.96267 5.529 8.71667 4.66667 9.55 4C10.3833 3.33333 11.2 3 12 3C12.8167 3 13.6377 3.33333 14.463 4C15.2883 4.66667 16.0383 5.52933 16.713 6.588C17.3877 7.646 17.9377 8.825 18.363 10.125C18.7883 11.425 19.0007 12.7167 19 14C19 15.95 18.3207 17.6043 16.962 18.963C15.6033 20.3217 13.9493 21.0007 12 21ZM13 18C13.2833 18 13.521 17.904 13.713 17.712C13.905 17.52 14.0007 17.2827 14 17C14 16.7167 13.904 16.479 13.712 16.287C13.52 16.095 13.2827 15.9993 13 16C12.1667 16 11.4583 15.7083 10.875 15.125C10.2917 14.5417 10 13.8333 10 13C10 12.7167 9.904 12.479 9.712 12.287C9.52 12.095 9.28267 11.9993 9 12C8.71667 12 8.479 12.096 8.287 12.288C8.095 12.48 7.99933 12.7173 8 13C8 14.3833 8.48767 15.5627 9.463 16.538C10.4383 17.5133 11.6173 18.0007 13 18Z" fill="#FFC700"/>
</g>
</svg>
