<svg width="288" height="285" viewBox="0 0 288 285" fill="none" xmlns="http://www.w3.org/2000/svg">
<g id="Group 1000003666">
<g id="Group">
<path id="Vector" opacity="0.96" fill-rule="evenodd" clip-rule="evenodd" d="M96.6529 82.0179C130.667 114.767 167.213 117.716 206.291 90.8638C178.084 118.727 172.074 150.682 188.261 186.728C191.163 191.611 194.326 196.322 197.749 200.861C163.376 167.749 126.508 164.661 87.1447 191.601C111.959 168.486 119.844 140.69 110.8 108.213C107.433 98.745 102.717 90.014 96.6529 82.0179Z" fill="#F7F3FF"/>
</g>
<g id="Group_2">
<path id="Vector_2" opacity="0.984" fill-rule="evenodd" clip-rule="evenodd" d="M67.3375 240.964C113.31 205.925 161.78 201.869 212.749 228.795C220.283 233.844 227.622 239.127 234.765 244.644C208.998 202.009 207.304 158.516 229.683 114.165C237.308 100.645 247.072 88.9018 258.977 78.9352C292.977 113.591 305.002 154.504 295.053 201.672C278.365 256.507 241.686 288.339 185.016 297.169C135.481 300.36 96.2545 281.625 67.3375 240.964Z" fill="#F7F3FF"/>
</g>
</g>
</svg>
