<svg width="58" height="58" viewBox="0 0 58 58" fill="none" xmlns="http://www.w3.org/2000/svg">
<circle cx="29" cy="29" r="29" fill="white"/>
<ellipse cx="28.0964" cy="24.6719" rx="4.57895" ry="4.37986" fill="#FF6CC2" stroke="#FF6CC2" stroke-linecap="round" stroke-linejoin="round"/>
<path fill-rule="evenodd" clip-rule="evenodd" d="M20.8333 35.1436C20.832 34.8357 20.904 34.5315 21.0438 34.2542C21.4824 33.4151 22.7192 32.9704 23.7455 32.7691C24.4857 32.618 25.2361 32.517 25.9912 32.467C27.3891 32.3495 28.795 32.3495 30.1929 32.467C30.9479 32.5176 31.6982 32.6185 32.4385 32.7691C33.4648 32.9704 34.7017 33.3732 35.1403 34.2542C35.4214 34.8196 35.4214 35.476 35.1403 36.0414C34.7017 36.9224 33.4648 37.3251 32.4385 37.5181C31.6992 37.6754 30.9485 37.7792 30.1929 37.8286C29.0551 37.9208 27.9121 37.9376 26.7719 37.8789C26.5087 37.8789 26.2543 37.8789 25.9912 37.8286C25.2384 37.7798 24.4906 37.676 23.7543 37.5181C22.7192 37.3251 21.4912 36.9224 21.0438 36.0414C20.9047 35.7608 20.8328 35.4541 20.8333 35.1436Z" fill="#FF6CC2" stroke="#FF6CC2" stroke-linecap="round" stroke-linejoin="round"/>
</svg>
