<svg width="34" height="34" viewBox="0 0 34 34" fill="none" xmlns="http://www.w3.org/2000/svg">
<g id="Group 2591">
<g id="Group 2590">
<g id="Group">
<path id="Vector" d="M16.67 33.34C25.8766 33.34 33.34 25.8766 33.34 16.67C33.34 7.46342 25.8766 0 16.67 0C7.46342 0 0 7.46342 0 16.67C0 25.8766 7.46342 33.34 16.67 33.34Z" fill="#2B0A60"/>
</g>
<path id="Vector_2" d="M14.4867 23.3182C14.1116 23.3182 13.7533 23.1685 13.4887 22.8997L8.32394 17.651C7.78227 17.0995 7.78926 16.2149 8.34074 15.6719C8.89222 15.1316 9.7782 15.1372 10.3199 15.6887L14.4461 19.882L22.9827 10.4805C23.5048 9.90805 24.3894 9.86746 24.959 10.3853C25.5315 10.9046 25.5735 11.7892 25.0542 12.3631L15.5225 22.8605C15.2636 23.146 14.8996 23.3112 14.5147 23.3196C14.5049 23.3182 14.4965 23.3182 14.4867 23.3182Z" fill="white"/>
</g>
</g>
</svg>
