<svg width="24" height="24" viewBox="0 0 24 24" fill="none" xmlns="http://www.w3.org/2000/svg">
<g id="covid:symptoms-virus-headache-2">
<g id="Group">
<path id="Vector" d="M15.3258 23.2501V19.2601H18.0888C18.4416 19.2601 18.7799 19.12 19.0293 18.8706C19.2787 18.6211 19.4188 18.2829 19.4188 17.9301V15.0631H20.9548C21.1254 15.0632 21.2933 15.0206 21.4432 14.9391C21.5931 14.8577 21.7202 14.74 21.8129 14.5968C21.9057 14.4537 21.9611 14.2896 21.9742 14.1195C21.9873 13.9494 21.9576 13.7788 21.8878 13.6231C20.8828 11.3861 19.4148 8.63612 19.4148 8.63612V6.45712C19.4158 6.16434 19.3537 5.87478 19.2328 5.60812C18.8272 4.50981 18.1634 3.52517 17.2974 2.73728C16.4313 1.94938 15.3885 1.38136 14.2568 1.08112C8.27883 -0.486879 2.06683 3.70012 2.02183 9.87612C2.01042 11.1838 2.2784 12.4789 2.80784 13.6747C3.33728 14.8705 4.11597 15.9395 5.09183 16.8101V23.2501" stroke="#5F5F5F" stroke-width="1.5" stroke-linecap="round" stroke-linejoin="round"/>
<path id="Vector_2" d="M10.984 12.4753C11.7202 12.4753 12.4263 12.1828 12.9469 11.6622M10.984 12.4753C10.2477 12.4753 9.54165 12.1828 9.02105 11.6622M10.984 12.4753V14.5573M12.9469 11.6622C13.4675 11.1416 13.76 10.4355 13.76 9.69931M12.9469 11.6622L14.419 13.1343M13.76 9.69931C13.76 8.96307 13.4675 8.25698 12.9469 7.73638M13.76 9.69931H15.842M12.9469 7.73638C12.4263 7.21578 11.7202 6.92331 10.984 6.92331M12.9469 7.73638L14.419 6.26431M10.984 6.92331C10.2477 6.92331 9.54165 7.21578 9.02105 7.73638M10.984 6.92331V4.84131M9.02105 7.73638C8.50045 8.25698 8.20798 8.96307 8.20798 9.69931M9.02105 7.73638L7.54898 6.26431M8.20798 9.69931C8.20798 10.4355 8.50045 11.1416 9.02105 11.6622M8.20798 9.69931H6.12598M9.02105 11.6622L7.54898 13.1343M10.522 4.84131H11.447M14.092 5.93731L14.746 6.59131M15.842 9.23631V10.1623M14.746 12.8073L14.092 13.4613M11.447 14.5573H10.522M7.87598 13.4613L7.22198 12.8073M6.12598 10.1623V9.23631M7.22198 6.59131L7.87598 5.93731" stroke="#5F5F5F" stroke-width="1.5" stroke-linecap="round" stroke-linejoin="round"/>
</g>
</g>
</svg>
