<svg width="20" height="20" viewBox="0 0 20 20" fill="none" xmlns="http://www.w3.org/2000/svg">
<g id="mdi:business">
<path id="Vector" d="M15 12.5H13.3334V14.1667H15M15 9.16667H13.3334V10.8333H15M16.6667 15.8333H10V14.1667H11.6667V12.5H10V10.8333H11.6667V9.16667H10V7.5H16.6667M8.33335 5.83333H6.66669V4.16667H8.33335M8.33335 9.16667H6.66669V7.5H8.33335M8.33335 12.5H6.66669V10.8333H8.33335M8.33335 15.8333H6.66669V14.1667H8.33335M5.00002 5.83333H3.33335V4.16667H5.00002M5.00002 9.16667H3.33335V7.5H5.00002M5.00002 12.5H3.33335V10.8333H5.00002M5.00002 15.8333H3.33335V14.1667H5.00002M10 5.83333V2.5H1.66669V17.5H18.3334V5.83333H10Z" fill="white"/>
</g>
</svg>
