<svg width="310" height="313" viewBox="0 0 310 313" fill="none" xmlns="http://www.w3.org/2000/svg">
<path d="M200.135 48.745C199.286 44.8284 199.036 47.7136 197.189 44.161C198.457 48.7518 196.117 47.2485 193.009 50.8482C171.168 54.2727 168.836 42.9678 160.753 43.1971C159.371 43.1971 162.042 35.7192 162.036 34.3306C158.911 29.2226 160.076 14.7644 163.335 18.6728C163.335 8.35908 171.694 0 182.008 0C191.513 0 199.359 7.10516 200.526 16.2932C200.917 19.3672 201.402 22.4209 201.982 25.4612L204.671 34.5887C208.454 41.8806 206.665 47.5463 200.135 48.745Z" fill="#361803"/>
<path d="M177.397 34.9054C184.958 34.9054 191.087 28.776 191.087 21.2151C191.087 13.6541 184.958 7.52478 177.397 7.52478C169.836 7.52478 163.707 13.6541 163.707 21.2151C163.707 28.776 169.836 34.9054 177.397 34.9054Z" fill="#A0616A"/>
<path d="M134.612 312.114C144.397 312.114 152.33 304.182 152.33 294.396C152.33 284.611 144.397 276.678 134.612 276.678C124.827 276.678 116.894 284.611 116.894 294.396C116.894 304.182 124.827 312.114 134.612 312.114Z" fill="#E6E6E6"/>
<path d="M200.409 121.086H151.474C155.575 111.933 158.097 103.217 154.155 96.2832L198.033 93.7021C195.336 109.207 200.729 115.274 200.409 121.086Z" fill="#A0616A"/>
<path d="M200.581 297.124L194.033 297.278L190.383 267.859L200.046 267.631L200.581 297.124Z" fill="#A0616A"/>
<path d="M178.115 310.785C178.115 311.892 178.9 312.788 179.868 312.788H192.866C192.866 312.788 194.145 307.647 199.36 305.434L199.72 312.788H206.425L205.613 300.963C205.613 300.963 207.406 294.636 203.681 291.402C199.956 288.169 202.973 288.619 202.973 288.619L201.508 281.3L191.376 282.491L191.301 293.98L186.384 305.384L179.172 308.947C178.53 309.264 178.115 309.987 178.115 310.785Z" fill="#2F2E41"/>
<path d="M139.733 267.039L133.216 267.698L127.308 238.648L136.925 237.675L139.733 267.039Z" fill="#A0616A"/>
<path d="M118.387 282.393C118.473 283.495 119.324 284.329 120.29 284.254L133.249 283.252C133.249 283.252 134.128 278.027 139.157 275.419L140.083 282.723L146.768 282.206L145.046 270.479C145.046 270.479 146.346 264.033 142.383 261.096C138.419 258.158 141.462 258.375 141.462 258.375L139.437 251.19L129.427 253.16L130.239 264.62L126.216 276.37L119.3 280.478C118.684 280.844 118.326 281.596 118.387 282.393Z" fill="#2F2E41"/>
<path d="M195.857 116.068L200.667 117.671C208.187 131.56 211.375 150.004 210.953 172.245L202.409 272.138H188.431L178.202 160.853L172.776 165.408L141.29 191.837L140.33 244.5L127.134 245.845L114.71 190.413L152.096 117.186L195.857 116.068Z" fill="#2F2E41"/>
<path d="M204.926 50.3269C203.922 47.3158 190.372 45.8103 190.372 45.8103L186.358 37.2791L171.302 38.2827L162.771 45.8103C162.771 45.8103 154.742 47.3158 153.738 50.3269C152.734 53.3379 153.541 95.0504 153.541 95.0504L152.734 109.042L197.9 108.038L198.033 96.3987C198.033 96.3987 205.929 53.3379 204.926 50.3269Z" fill="white"/>
<path d="M222.992 180.805C241.007 180.805 255.611 166.201 255.611 148.185C255.611 130.17 241.007 115.566 222.992 115.566C204.976 115.566 190.372 130.17 190.372 148.185C190.372 166.201 204.976 180.805 222.992 180.805Z" fill="#FF4B83"/>
<path d="M222.992 160.04C222.486 160.04 222.012 159.785 221.733 159.361L213.453 146.754C212.997 146.059 213.19 145.125 213.885 144.669C214.581 144.212 215.513 144.406 215.97 145.1L222.903 155.656L233.478 137.151C233.891 136.429 234.81 136.178 235.532 136.591C236.254 137.003 236.505 137.923 236.092 138.644L224.299 159.281C224.039 159.736 223.562 160.023 223.038 160.039C223.023 160.04 223.007 160.04 222.992 160.04Z" fill="white"/>
<path d="M235.109 97.7468L240.162 112.109L242.823 139.336L236.548 139.415L230.258 115.951L218.131 85.5996L235.109 97.7468Z" fill="#A0616A"/>
<path d="M241.582 150.935C243.827 150.504 245.06 147.089 244.334 143.306C243.609 139.524 241.2 136.808 238.955 137.238C236.709 137.669 235.477 141.084 236.202 144.866C236.928 148.648 239.336 151.365 241.582 150.935Z" fill="#A0616A"/>
<path d="M198.02 48.3585C198.02 48.3585 206.938 44.8912 210.964 52.9884C214.989 61.0855 236.653 97.1254 236.653 97.1254L238.248 101.454L225.529 107.05L223.562 101.711C223.562 101.711 216.503 104.383 216.057 100.269C215.885 98.6883 203.17 80.6933 199.907 71.404C194.677 56.5164 198.02 48.3585 198.02 48.3585Z" fill="white"/>
<path d="M260.252 301.661C261.645 301.748 262.414 300.018 261.361 299.009L261.256 298.592C261.27 298.559 261.284 298.526 261.297 298.492C262.706 295.134 267.479 295.157 268.875 298.521C270.115 301.506 271.693 304.496 272.081 307.652C272.256 309.045 272.177 310.465 271.868 311.832C274.772 305.488 276.3 298.561 276.3 291.594C276.3 289.844 276.205 288.094 276.009 286.348C275.848 284.92 275.626 283.5 275.338 282.094C273.784 274.492 270.418 267.251 265.563 261.204C263.23 259.928 261.284 257.934 260.108 255.543C259.686 254.681 259.355 253.754 259.198 252.809C259.464 252.844 260.199 248.799 259.999 248.551C260.369 247.989 261.032 247.71 261.436 247.162C263.446 244.436 266.216 244.912 267.662 248.616C270.751 250.175 270.781 252.761 268.886 255.247C267.68 256.829 267.514 258.97 266.456 260.664C266.565 260.803 266.678 260.938 266.787 261.077C268.783 263.637 270.509 266.389 271.965 269.28C271.554 266.067 272.161 262.197 273.196 259.701C274.375 256.858 276.583 254.464 278.529 252.006C280.865 249.054 285.656 250.343 286.068 254.085C286.072 254.121 286.076 254.157 286.08 254.194C285.791 254.357 285.508 254.53 285.231 254.713C283.654 255.756 284.199 258.2 286.068 258.489L286.11 258.495C286.006 259.536 285.827 260.568 285.566 261.582C288.061 271.233 282.674 274.748 274.981 274.906C274.811 274.993 274.646 275.08 274.476 275.162C275.256 277.357 275.878 279.608 276.34 281.889C276.753 283.905 277.041 285.943 277.202 287.989C277.402 290.571 277.385 293.166 277.167 295.744L277.18 295.652C277.733 292.814 279.274 290.162 281.512 288.325C284.846 285.586 289.556 284.577 293.153 282.376C294.884 281.316 297.103 282.686 296.801 284.693L296.786 284.789C296.25 285.007 295.728 285.259 295.223 285.542C294.934 285.705 294.651 285.879 294.374 286.061C292.797 287.104 293.342 289.549 295.211 289.838L295.253 289.844C295.284 289.848 295.31 289.853 295.34 289.857C294.422 292.039 293.142 294.063 291.539 295.809C289.979 304.234 283.278 305.033 276.109 302.58H276.105C275.321 305.993 274.176 309.328 272.704 312.507H260.556C260.513 312.372 260.474 312.232 260.434 312.097C261.558 312.167 262.69 312.102 263.796 311.897C262.894 310.791 261.993 309.677 261.092 308.571C261.07 308.549 261.053 308.527 261.035 308.505C260.578 307.939 260.117 307.378 259.659 306.812L259.659 306.811C259.631 305.073 259.839 303.341 260.252 301.661Z" fill="#FFF7F1"/>
<path d="M30.299 295.021C29.5563 295.068 29.1458 294.145 29.7077 293.607L29.7636 293.385L29.7414 293.332C28.9903 291.541 26.4449 291.553 25.7002 293.347C25.0392 294.939 24.1977 296.533 23.9905 298.216C23.8976 298.959 23.9394 299.716 24.1043 300.445C22.5555 297.062 21.7405 293.368 21.7405 289.653C21.7405 288.72 21.7916 287.786 21.8961 286.855C21.982 286.094 22.1004 285.337 22.2537 284.587C23.0826 280.533 24.8775 276.671 27.4664 273.446C28.711 272.766 29.7489 271.702 30.3758 270.427C30.601 269.968 30.7775 269.473 30.8611 268.969C30.7195 268.988 30.327 266.831 30.4339 266.698C30.2365 266.399 29.8832 266.25 29.6676 265.958C28.5955 264.504 27.1184 264.758 26.3472 266.733C24.6999 267.565 24.684 268.943 25.6948 270.27C26.3378 271.113 26.4262 272.255 26.9904 273.158C26.9324 273.232 26.872 273.304 26.8139 273.379C25.7495 274.744 24.8288 276.211 24.0526 277.753C24.272 276.04 23.9481 273.976 23.3961 272.645C22.7676 271.129 21.5896 269.852 20.5523 268.541C19.3062 266.967 16.7512 267.654 16.5317 269.65L16.5254 269.708C16.6795 269.795 16.8305 269.887 16.9779 269.984C17.8189 270.541 17.5283 271.844 16.5317 271.998L16.5092 272.002C16.5649 272.557 16.6601 273.107 16.7994 273.648C15.4686 278.794 18.3417 280.669 22.4441 280.753C22.5346 280.8 22.6229 280.846 22.7134 280.89C22.2978 282.06 21.9657 283.261 21.7196 284.478C21.499 285.553 21.3458 286.639 21.2599 287.731C21.1531 289.107 21.1624 290.491 21.2785 291.866L21.2715 291.817C20.9766 290.303 20.1546 288.889 18.9611 287.909C17.1832 286.449 14.6713 285.911 12.7533 284.737C11.83 284.172 10.6468 284.902 10.8079 285.973L10.8158 286.024C11.1014 286.14 11.38 286.275 11.6494 286.426C11.8034 286.513 11.9544 286.605 12.1018 286.702C12.9429 287.259 12.6522 288.562 11.6557 288.716L11.6331 288.72L11.5867 288.727C12.0766 289.89 12.7592 290.97 13.6137 291.901C14.4458 296.393 18.0197 296.82 21.8427 295.511H21.845C22.263 297.332 22.8737 299.11 23.6585 300.805H30.1367C30.1599 300.733 30.1808 300.659 30.2017 300.587C29.6026 300.624 28.9989 300.589 28.4091 300.48C28.8898 299.891 29.3704 299.296 29.8511 298.706C29.8627 298.695 29.872 298.683 29.8813 298.672C30.1251 298.37 30.3712 298.07 30.615 297.768C30.6303 296.842 30.5191 295.918 30.299 295.021Z" fill="#FFF7F1"/>
<path d="M0 312.4C0 312.733 0.232393 313 0.521784 313H308.881C309.17 313 309.402 312.733 309.402 312.4C309.402 312.068 309.17 311.801 308.881 311.801H0.521784C0.232393 311.801 0 312.068 0 312.4Z" fill="#E9EDF2"/>
<path d="M138.037 105.836L137.873 119.487L142.682 146.417L148.743 144.794L148.447 120.504L151.904 88.0027L138.037 105.836Z" fill="#A0616A"/>
<path d="M147.017 157.247C149.295 157.053 150.878 153.786 150.553 149.949C150.227 146.111 148.116 143.157 145.838 143.351C143.559 143.544 141.976 146.811 142.302 150.649C142.627 154.486 144.738 157.44 147.017 157.247Z" fill="#A0616A"/>
<path d="M161.182 46.7079C161.182 46.7079 151.658 45.7845 149.975 54.6691C148.292 63.5537 137.194 104.113 137.194 104.113L136.83 108.711L150.589 110.655L151.038 104.983C151.038 104.983 158.556 105.644 157.872 101.563C157.188 97.4817 161.182 46.7079 161.182 46.7079Z" fill="white"/>
<path d="M158.915 19.7878C158.728 9.99666 165.118 1.56274 173.686 5.01706H176.473C184.627 5.02626 198.564 16.5592 193.171 24.6486C185.755 18.5816 188.11 49.1061 180.421 50.8115C180.357 51.5908 178.053 50.522 178.015 49.7411L185.915 26.013C185.542 22.0641 184.679 18.177 183.345 14.4416L183.117 23.173L179.899 20.0666C177.277 20.1346 176.48 15.7302 172.176 18.907C167.872 22.0837 163.285 19.0103 158.915 20.0666L158.915 19.7878Z" fill="#361803"/>
</svg>
