<svg width="375" height="322" viewBox="0 0 375 322" fill="none" xmlns="http://www.w3.org/2000/svg">
<path d="M79.1456 175.559C82.2099 172.97 81.3963 166.968 77.3283 162.153C75.5476 160.045 73.4385 158.514 71.3727 157.676L68.9984 154.936L38.3381 116.519C38.3381 116.519 21.3589 78.3026 16.3467 74.174C11.3345 70.0453 5.43752 72.1948 5.43752 72.1948L0.836426 77.8873L29.5081 131.247L58.8515 160.777L62.8128 164.907C63.294 167.084 64.4509 169.419 66.2317 171.527C70.2996 176.342 76.0814 178.147 79.1456 175.559Z" fill="#A0616A"/>
<path d="M21.2698 81.2797L28.9533 92.5481L39.9837 108.873L20.164 115.729L2.66467 85.7023L21.2698 81.2797Z" fill="#E6E6E6"/>
<path d="M29.0708 42.929L23.506 64.1449L2.29016 59.9713C2.29016 59.9713 10.6374 44.668 8.55057 37.712L29.0708 42.929Z" fill="#A0616A"/>
<path d="M6.67481 319.093L19.4508 319.092L25.5284 269.813L6.67224 269.814L6.67481 319.093Z" fill="#A0616A"/>
<path d="M50.447 318.803C50.8448 319.473 51.0547 321.636 51.0547 322.415C51.0547 324.81 49.1133 326.751 46.7185 326.751H7.15267C5.51895 326.751 4.19448 325.427 4.19448 323.793V322.146C4.19448 322.146 2.2372 317.195 6.26689 311.093C6.26689 311.093 11.2753 315.871 18.7591 308.387L20.966 304.389L36.9409 316.072L45.7956 317.162C47.7328 317.401 49.4505 317.125 50.447 318.803Z" fill="#2F2E41"/>
<path d="M42.1493 176.478L24.5445 296.276H2.45685L5.39387 227.892L6.93965 191.936L2.45685 174.82C2.45685 174.82 0.412969 171.016 -1.30887 166.404C-3.24968 161.2 -4.78259 154.961 -2.50685 152.003C-1.66953 150.912 0.507454 150.105 3.46591 149.504C5.27363 149.134 7.37763 148.847 9.64907 148.623C22.711 147.331 41.2905 148.138 41.2905 148.138L41.7629 163.725L42.0248 172.429L42.1493 176.478Z" fill="#2F2E41"/>
<path d="M-15.8306 313.234L-3.19027 315.092L9.99075 267.22L-8.66508 264.479L-15.8306 313.234Z" fill="#A0616A"/>
<path d="M27.5182 319.315C27.8143 320.035 27.7074 322.205 27.5941 322.976C27.2458 325.345 25.0427 326.984 22.6733 326.635L-16.4717 320.88C-18.0881 320.643 -19.2058 319.14 -18.9681 317.523L-18.7285 315.894C-18.7285 315.894 -19.9449 310.711 -15.0704 305.26C-15.0704 305.26 -10.8103 310.715 -2.31756 304.4L0.447399 300.765L14.553 314.648L23.155 317.014C25.0369 317.532 26.7764 317.509 27.5182 319.315Z" fill="#2F2E41"/>
<path d="M42.4263 156.499L40.0117 177.294L26.8433 221.115L5.16596 293.259L-16.6843 290.048L2.92605 187.469L0.984318 169.88C0.984318 169.88 0.351955 168.132 -0.372906 165.572C-1.81171 160.508 -3.61629 152.261 -1.63095 148.055C-1.36288 147.483 -1.02634 146.987 -0.610025 146.585C0.170847 145.828 1.75791 145.368 3.88422 145.124C12.7718 144.12 31.0752 146.993 39.2197 148.403L42.4263 156.499Z" fill="#2F2E41"/>
<path d="M25.5928 57.8845L49.591 88.1431L45.2832 119.69L41.5916 151.791L-1.88345 145.182C-1.88345 145.182 7.50716 122.575 8.55057 121.532C9.59397 120.489 12.2148 123.066 10.3827 119.69C8.55057 116.315 6.46376 116.315 8.20277 114.576C9.94177 112.837 -5.36145 90.2299 -5.36145 78.0569C-5.36145 65.8839 1.94235 56.1455 1.94235 56.1455L25.5928 57.8845Z" fill="#E6E6E6"/>
<path d="M19.9937 46.9356C28.9221 46.9356 36.1601 39.6976 36.1601 30.7692C36.1601 21.8407 28.9221 14.6028 19.9937 14.6028C11.0652 14.6028 3.82727 21.8407 3.82727 30.7692C3.82727 39.6976 11.0652 46.9356 19.9937 46.9356Z" fill="#A0616A"/>
<path d="M19.2381 61.6788C19.2381 61.6788 21.6572 42.5376 22.0854 36.9712C22.5135 31.4048 30.3709 22.7141 30.3709 22.7141L35.9373 27.21C35.9373 27.21 40.6473 27.21 37.4359 20.3591C34.2245 13.5081 28.2299 12.4377 28.2299 12.4377C28.2299 12.4377 27.5877 3.44579 16.4549 4.51625C5.32211 5.58671 0.397997 14.5786 0.397997 14.5786C0.397997 14.5786 -0.244275 3.2317 -7.30931 11.5813C-14.3743 19.9309 -18.4421 23.3563 -10.9489 26.1395C-3.45565 28.9227 2.11073 26.7818 2.11073 26.7818C2.11073 26.7818 -5.16839 28.2805 -3.88384 33.4187C-2.59929 38.5569 -20.7971 61.8929 -12.4475 64.462C-4.09793 67.0311 14.5281 73.2398 16.669 69.172C18.8099 65.1043 19.2381 61.6788 19.2381 61.6788Z" fill="#2F2E41"/>
<path d="M5.65068 203.893C9.66182 203.933 12.964 198.856 13.0264 192.552C13.0537 189.793 12.4555 187.256 11.4379 185.273L11.4283 181.647L13.2848 132.531C13.2848 132.531 25.3736 92.4976 24.2725 86.0979C23.1714 79.6983 17.3011 77.4766 17.3011 77.4766L10.0995 78.7846L-3.01892 137.922L-0.0714483 179.448L0.232778 185.162C-0.823784 187.125 -1.47206 189.649 -1.49919 192.409C-1.56161 198.712 1.63953 203.854 5.65068 203.893Z" fill="#A0616A"/>
<path d="M14.333 71.0645C14.333 71.0645 -4.91667 105.268 -2.14231 115.066L19.1951 115.936C19.1951 115.936 20.3603 116.84 20.2707 112.703C20.1812 108.566 25.0181 103.944 25.0181 103.944C25.0181 103.944 24.9274 105.96 24.3116 102.533C23.6959 99.1057 35.4591 89.0912 35.4591 89.0912L14.333 71.0645Z" fill="#E6E6E6"/>
<path d="M63.9941 167.199L66.2286 113.927C66.2286 113.927 68.7385 82.3012 70.7466 71.2571C72.7546 60.2131 86.3088 63.225 86.3088 63.225L84.8027 94.8513L78.3048 127.217L73.2473 171.289C73.5078 172.564 73.6554 173.95 73.6554 175.405C73.6554 181.579 71.077 186.584 67.8962 186.584C64.7154 186.584 62.137 181.579 62.137 175.405C62.137 172.157 62.8548 169.242 63.9941 167.199Z" fill="#FFB6B6"/>
<path d="M172.765 153.396C170.389 150.566 167.544 148.643 164.988 147.902L134.934 113.928C134.934 113.928 132.424 82.3013 130.416 71.2572C128.408 60.2131 114.853 63.2252 114.853 63.2252L116.359 94.8514L124.893 128.988L160.062 158.845C160.676 159.964 161.429 161.083 162.331 162.157C166.609 167.253 172.414 169.423 175.295 167.004C178.176 164.584 177.044 158.492 172.765 153.396Z" fill="#FFB6B6"/>
<path d="M106.64 58.9581L103.154 45.5553L89.5718 44.902L85.5083 63.3773L106.64 58.9581Z" fill="#FFB6B6"/>
<path opacity="0.1" d="M106.64 58.9581L103.154 45.5553L89.5718 44.902L85.5083 63.3773L106.64 58.9581Z" fill="black"/>
<path d="M141.322 278.533L154.043 277.806L152.374 316.846L143.754 317.339L141.322 278.533Z" fill="#FFB6B6"/>
<path d="M153.476 304.502L149.059 306.517L149.065 309.195C149.065 309.195 147.999 306.096 142.279 305.42L141.596 308.016C141.596 308.016 139.378 310.562 139.758 315.168L141.215 327.502L145.528 327.403L146.225 318.82C146.225 318.82 147.413 316.872 152.887 326.127C152.887 326.127 158.917 327.647 168.254 324.516C169.538 324.086 170.429 322.888 170.412 321.534C170.403 320.787 170.111 320.097 169.175 319.849C166.79 319.219 164.462 320.018 162.923 318.115C161.383 316.212 153.476 304.502 153.476 304.502Z" fill="#2F2E41"/>
<path d="M73.0493 278.533L85.7701 277.806L84.1014 316.846L75.4816 317.339L73.0493 278.533Z" fill="#FFB6B6"/>
<path d="M85.2037 304.502L80.7867 306.517L80.7924 309.195C80.7924 309.195 79.7268 306.096 74.0067 305.42L73.3239 308.016C73.3239 308.016 71.1054 310.562 71.4859 315.168L72.942 327.502L77.2558 327.403L77.9525 318.82C77.9525 318.82 79.1409 316.872 84.6146 326.127C84.6146 326.127 90.6443 327.647 99.9817 324.516C101.265 324.086 102.157 322.888 102.14 321.534C102.131 320.787 101.839 320.097 100.902 319.849C98.5178 319.219 96.1897 320.018 94.6501 318.115C93.1105 316.212 85.2037 304.502 85.2037 304.502Z" fill="#2F2E41"/>
<path d="M96.1975 53.4481C104.515 53.4481 111.258 46.7055 111.258 38.388C111.258 30.0705 104.515 23.3279 96.1975 23.3279C87.88 23.3279 81.1373 30.0705 81.1373 38.388C81.1373 46.7055 87.88 53.4481 96.1975 53.4481Z" fill="#FFB6B6"/>
<path d="M87.6572 40.8916C87.6572 40.8916 94.2786 30.0574 100.907 31.2532C107.535 32.4491 110.99 33.5287 110.99 33.5287C110.99 33.5287 113.689 24.8906 104.627 20.7463C104.627 20.7463 117.451 10.0092 103.784 3.11859C90.1163 -3.77206 81.6113 2.9061 81.6113 2.9061C81.6113 2.9061 70.2991 12.4997 82.8412 21.3782C82.8412 21.3782 71.9859 33.7435 82.95 45.5553C82.95 45.5553 81.0144 36.5613 83.6474 38.4051C86.2804 40.2489 87.6572 40.8916 87.6572 40.8916Z" fill="#2F2E41"/>
<path d="M86.0577 59.9621L106.64 57.452L122.453 70.2531C122.453 70.2531 130.318 92.1658 124.461 105.393C124.321 105.71 124.21 127.733 124.21 127.733H80.4804C80.4804 127.733 80.5227 112.743 78.8518 107.314C78.6131 106.539 78.3394 105.958 78.0257 105.644C75.5157 103.134 69.4916 87.0703 72.5036 80.0422C75.5157 73.0142 86.0577 59.9621 86.0577 59.9621Z" fill="#FF4B83"/>
<path d="M124.461 126.729L152.071 214.579L158.095 283.856H141.278L126.971 219.599L107.268 182.404L87.8147 288.876H70.8395L71.2486 144.801L80.5159 126.729H124.461Z" fill="#2F2E41"/>
<path d="M249.856 76.4054L247.251 60.1193L264.84 52.9534L267.445 77.7083L249.856 76.4054Z" fill="#A0616A"/>
<path opacity="0.1" d="M249.856 76.4054L247.251 60.1193L264.84 52.9534L267.445 77.7083L249.856 76.4054Z" fill="black"/>
<path d="M172.729 150.867C169.787 154.391 169.221 158.765 171.464 160.637C173.707 162.509 177.91 161.169 180.852 157.643C182.046 156.251 182.89 154.593 183.312 152.808L195.587 137.719L189.608 132.88L177.048 147.58C175.366 148.315 173.885 149.442 172.729 150.867Z" fill="#A0616A"/>
<path d="M226.374 76.2876L230.646 93.2097L209.736 126.68L188.391 148.133L181.472 142.393L203 115.608L219.317 81.0961L226.374 76.2876Z" fill="#FFE1C6"/>
<path d="M242.039 292.034L238.13 308.32L249.856 311.577L252.462 293.988L242.039 292.034Z" fill="#A0616A"/>
<path d="M223.147 239.267L235.525 249.69L243.342 262.067L232.267 269.233L213.375 247.736L223.147 239.267Z" fill="#A0616A"/>
<path d="M227.056 131.778L216.633 166.956C216.633 166.956 170.38 207.346 174.94 215.815C179.5 224.284 210.118 247.736 210.118 247.736C210.118 247.736 207.846 255.235 214.519 252.137C221.193 249.038 228.359 240.57 228.359 240.57C228.359 240.57 228.359 234.055 225.102 235.358C221.844 236.661 206.861 219.072 206.861 219.072L241.835 189.577L239.433 289.308C239.433 289.308 231.616 296.143 239.433 296.694C247.251 297.245 251.811 298.548 251.811 298.548C251.811 298.548 260.931 295.291 257.674 292.034L270.051 238.615L282.037 182.646C283.436 176.109 282.953 169.31 280.642 163.037L272.006 139.596L227.056 131.778Z" fill="#2F2E41"/>
<path d="M247.902 306.366C247.902 306.366 247.251 303.76 244.645 303.76H236.687C236.687 303.76 234.222 314.834 234.873 314.834C235.525 314.834 224.45 329.166 236.176 329.818C247.902 330.469 251.159 329.166 251.159 329.166L252.462 324.024C252.462 324.024 254.417 320.697 253.765 318.092C253.114 315.486 247.902 306.366 247.902 306.366Z" fill="#2F2E41"/>
<path d="M231.616 264.022C231.616 264.022 224.134 263.904 225.92 265.917C227.707 267.93 230.964 271.188 230.964 271.188C230.964 271.188 238.713 286.822 242.33 283.891C245.948 280.959 251.811 248.387 249.856 244.478C247.902 240.57 245.296 240.57 245.296 240.57L233.278 247.798C233.278 247.798 240.736 265.976 231.616 264.022Z" fill="#2F2E41"/>
<path d="M268.423 74.1253L247.576 68.9137L225.427 76.0796C225.427 76.0796 215.656 103.44 218.913 113.212C222.17 122.984 224.898 138.113 224.898 138.113C224.898 138.113 222.496 133.733 241.388 139.596C260.28 145.459 273.96 144.807 273.96 144.807L274.611 121.355L282.795 100.524C286.293 91.6201 282.523 81.511 274.049 77.0722L268.423 74.1253Z" fill="#FD7900"/>
<path d="M256.637 66.5526C266.356 66.5526 274.235 58.6735 274.235 48.9542C274.235 39.2349 266.356 31.3558 256.637 31.3558C246.918 31.3558 239.039 39.2349 239.039 48.9542C239.039 58.6735 246.918 66.5526 256.637 66.5526Z" fill="#A0616A"/>
<path d="M270.851 60.4608C270.851 60.4608 268.144 63.1683 265.436 64.522C264.658 64.9109 264.718 64.3501 265.199 63.3532C267.641 58.292 266.702 52.2507 262.729 48.2773L263.406 44.2162L240.392 42.1856C240.392 42.1856 237.685 31.3558 251.899 29.3252C254.315 28.9801 243.1 28.6483 245.807 23.2335C248.515 17.8186 250.545 19.1723 251.899 15.1111C253.253 11.05 253.253 7.66567 257.991 8.34253C262.729 9.0194 262.729 11.7268 267.467 9.01939C272.205 6.31195 283.711 9.01939 281.681 13.0806C279.65 17.1417 276.266 20.526 278.973 23.2335C281.681 25.9409 287.773 30.6789 283.035 34.0632C278.297 37.4475 276.943 39.4781 277.62 40.8318C278.297 42.1856 273.558 39.4781 273.558 39.4781C273.558 39.4781 278.297 48.9542 276.266 52.3385C274.235 55.7228 270.851 60.4608 270.851 60.4608Z" fill="black"/>
<path d="M370.228 117.193H334.076V163.345H370.228V117.193Z" fill="#FFEFE3"/>
<path d="M336.383 34.1189C334.551 30.6789 333.695 29.1805 334.076 27.196C334.745 23.7102 338.641 21.8153 340.229 21.0424C345.332 18.56 351.947 18.7083 357.152 21.8116C360.279 23.676 361.948 26.0415 363.306 27.9653C364.522 29.6893 368.305 35.0503 367.921 41.8109C367.632 46.8861 365.311 47.2012 365.613 50.2722C366.373 57.9811 381.187 57.8703 384.843 66.4255C388.14 74.14 381.533 86.9558 371.767 91.8092C356.898 99.1981 340.804 85.1026 337.922 82.5788C330.978 76.4973 326.385 68.1279 327.922 66.4255C328.822 65.4286 331.191 67.4192 334.845 66.4255C339.011 65.2925 341.222 61.2667 341.768 60.2719C344.922 54.5274 343.072 48.2423 342.537 46.4262C342.04 44.7392 340.155 41.1991 336.383 34.1189Z" fill="#FFCFAD"/>
<path d="M317.022 320.321L306.48 320.32L301.466 279.658L317.024 279.659L317.022 320.321Z" fill="#FFEFE3"/>
<path d="M280.905 320.082C280.577 320.634 280.403 322.419 280.403 323.061C280.403 325.037 282.005 326.639 283.981 326.639H316.628C317.976 326.639 319.069 325.547 319.069 324.199V322.839C319.069 322.839 320.684 318.754 317.359 313.719C317.359 313.719 313.226 317.662 307.051 311.487L305.23 308.188L292.049 317.828L284.743 318.727C283.144 318.924 281.727 318.697 280.905 320.082Z" fill="#2F2E41"/>
<path d="M377.789 320.321L367.248 320.32L362.233 279.658L377.791 279.659L377.789 320.321Z" fill="#FFEFE3"/>
<path d="M341.672 320.082C341.344 320.634 341.171 322.419 341.171 323.061C341.171 325.037 342.772 326.639 344.748 326.639H377.395C378.743 326.639 379.836 325.547 379.836 324.199V322.839C379.836 322.839 381.451 318.754 378.126 313.719C378.126 313.719 373.993 317.662 367.818 311.487L365.997 308.188L352.816 317.828L345.51 318.727C343.911 318.924 342.494 318.697 341.672 320.082Z" fill="#2F2E41"/>
<path d="M344.075 51.0413L344.845 74.8867L372.536 78.7327L358.306 46.3595L344.075 51.0413Z" fill="#FFCFAD"/>
<path d="M351.768 58.7335C360.689 58.7335 367.921 51.5014 367.921 42.5802C367.921 33.659 360.689 26.4269 351.768 26.4269C342.846 26.4269 335.614 33.659 335.614 42.5802C335.614 51.5014 342.846 58.7335 351.768 58.7335Z" fill="#FFEFE3"/>
<path d="M370.228 144.884C370.228 144.884 387.535 163.73 376.767 180.652L378.305 235.266C378.305 235.266 384.713 274.828 377.279 300.815L364.459 299.879L355.229 232.189L345.998 187.575L324.461 231.42C324.461 231.42 325.999 262.957 318.307 296.802H301.385L302.923 218.343L330.999 136.423L370.228 144.884Z" fill="#2F2E41"/>
<path d="M344.845 65.6563L346.004 65.2349L361.767 59.5027C361.767 59.5027 381.767 74.8868 381.767 83.348C381.767 91.8093 370.998 122.577 370.998 122.577C370.998 122.577 385.613 137.962 372.536 138.731C359.46 139.5 352.59 127.034 331.052 136.264L329.461 116.424C329.461 116.424 320.23 96.4245 324.845 91.8093L344.845 65.6563Z" fill="#6C63FF"/>
<path d="M366.721 184.847C366.82 191.129 370.142 196.17 374.14 196.106C378.137 196.043 381.297 190.899 381.197 184.615C381.192 182.104 380.585 179.631 379.428 177.403L378.673 150.791L368.15 151.116L368.262 177.58C367.175 179.844 366.647 182.336 366.721 184.847Z" fill="#FFEFE3"/>
<path d="M372.23 67.3353C378.213 66.3588 383.64 70.9876 383.62 77.049L380.456 172.379L367.938 172.084L364.002 77.1115C363.955 72.2683 367.45 68.1157 372.23 67.3353Z" fill="#6C63FF"/>
<path d="M266.14 137.923C261.22 141.83 259.247 147.535 261.734 150.666C264.221 153.797 270.225 153.168 275.146 149.259C277.134 147.724 278.725 145.736 279.786 143.461L300.425 126.644L293.754 118.499L272.84 134.716C270.383 135.234 268.085 136.334 266.14 137.923Z" fill="#FFEFE3"/>
<path d="M362.664 70.6742C367.084 74.8219 366.722 81.9459 361.904 85.6239L284.396 141.214L277.001 131.109L349.899 70.1086C353.71 67.1196 359.132 67.3598 362.664 70.6742Z" fill="#6C63FF"/>
<path d="M344.075 33.3497C342.243 29.9097 341.387 28.4113 341.768 26.4269C342.438 22.9411 346.333 21.0461 347.921 20.2732C353.024 17.7909 359.639 17.9392 364.844 21.0424C367.971 22.9069 369.64 25.2723 370.998 27.1961C372.214 28.9201 375.997 34.2811 375.613 41.0418C375.324 46.1169 373.003 46.4321 373.305 49.503C374.065 57.2119 388.879 57.1012 392.535 65.6563C395.832 73.3708 389.225 86.1867 379.459 91.0401C364.59 98.429 348.496 84.3335 345.614 81.8096C338.67 75.7281 334.077 67.3587 335.614 65.6563C336.514 64.6594 338.883 66.65 342.537 65.6563C346.703 64.5234 348.914 60.4975 349.46 59.5027C352.614 53.7582 350.764 47.4731 350.229 45.657C349.732 43.97 347.847 40.4299 344.075 33.3497Z" fill="#FFCFAD"/>
<path d="M258.998 137.812C254.603 139.139 251.726 142.482 252.571 145.279C253.416 148.075 257.662 149.266 262.058 147.938C263.821 147.432 265.438 146.511 266.772 145.252L285.32 139.395L282.986 132.066L264.413 137.441C262.604 137.13 260.747 137.258 258.998 137.812Z" fill="#A0616A"/>
<path d="M291.223 89.76L271.68 75.4282L272.331 102.789L290.572 126.241L271.029 134.058L271.68 145.22C271.68 145.22 296.435 139.27 300.344 138.618C304.252 137.967 307.509 128.847 307.509 128.847L291.223 89.76Z" fill="#FFE1C6"/>
</svg>
