<svg width="25" height="24" viewBox="0 0 25 24" fill="none" xmlns="http://www.w3.org/2000/svg">
<path d="M13.4 22.0001H4.98C3.82 22.0001 2.87 21.0701 2.87 19.9301V5.09011C2.87 2.47011 4.82 1.2801 7.21 2.4501L11.65 4.63011C12.61 5.10011 13.4 6.3501 13.4 7.4101V22.0001Z" stroke="#878FA0" stroke-width="1.3" stroke-linecap="round" stroke-linejoin="round"/>
<path d="M22.87 15.0602V18.8402C22.87 21.0002 21.87 22.0002 19.71 22.0002H13.4V10.4202L13.87 10.5202L18.37 11.5302L20.4 11.9802C21.72 12.2702 22.8 12.9502 22.86 14.8702C22.87 14.9302 22.87 14.9902 22.87 15.0602Z" stroke="#878FA0" stroke-width="1.3" stroke-linecap="round" stroke-linejoin="round"/>
<path d="M6.40002 9H9.87002" stroke="#878FA0" stroke-width="1.3" stroke-linecap="round" stroke-linejoin="round"/>
<path d="M6.40002 13H9.87002" stroke="#878FA0" stroke-width="1.3" stroke-linecap="round" stroke-linejoin="round"/>
<path d="M18.37 11.53V14.75C18.37 15.99 17.36 17 16.12 17C14.88 17 13.87 15.99 13.87 14.75V10.52L18.37 11.53Z" stroke="#878FA0" stroke-width="1.3" stroke-linecap="round" stroke-linejoin="round"/>
<path d="M22.86 14.87C22.8 16.05 21.82 17 20.62 17C19.38 17 18.37 15.99 18.37 14.75V11.53L20.4 11.98C21.72 12.27 22.8 12.95 22.86 14.87Z" stroke="#878FA0" stroke-width="1.3" stroke-linecap="round" stroke-linejoin="round"/>
</svg>
